<?xml version="1.0" encoding="UTF-8" standalone="no"?>
<svg xmlns="http://www.w3.org/2000/svg" xmlns:xlink="http://www.w3.org/1999/xlink" viewBox="0 0 1024 1024">
  <defs>
    <linearGradient id="c" x1="-14359.352" x2="-14096.11" y1="-8276.5" y2="-8276.5" gradientTransform="matrix(.762 .034 -.05 1.12 11303.447 10105.832)" gradientUnits="userSpaceOnUse">
      <stop offset="0" stop-color="#0083ff"/>
      <stop offset=".176" stop-color="#0096f6"/>
      <stop offset=".508" stop-color="#00b3e6"/>
      <stop offset=".794" stop-color="#00c6dd"/>
      <stop offset=".999" stop-color="#00ccda"/>
    </linearGradient>
    <linearGradient id="d" x1="-504.949" x2="-696.386" y1="731.188" y2="104.96" gradientTransform="translate(1081.935)" gradientUnits="userSpaceOnUse">
      <stop offset="0" stop-color="#000f40" stop-opacity=".6"/>
      <stop offset=".611" stop-color="#000f40" stop-opacity=".182"/>
      <stop offset="1" stop-color="#000f40" stop-opacity="0"/>
    </linearGradient>
    <linearGradient id="e" x1="576.987" x2="385.549" y1="731.188" y2="104.96" gradientUnits="userSpaceOnUse">
      <stop offset="0" stop-color="#000f43" stop-opacity=".4"/>
      <stop offset=".485" stop-color="#001962" stop-opacity=".173"/>
      <stop offset="1" stop-color="#002079" stop-opacity="0"/>
    </linearGradient>
    <linearGradient id="f" x1="-8493.547" x2="-8608.791" y1="-6472.091" y2="-6480.987" gradientTransform="matrix(1.219 .123 -.123 1.219 10533.536 9729.872)" gradientUnits="userSpaceOnUse">
      <stop offset="0" stop-color="#002275"/>
      <stop offset="1" stop-color="#005fe7"/>
    </linearGradient>
    <linearGradient id="g" x1="-8578.519" x2="-8470.569" y1="-6637.149" y2="-6749.273" gradientTransform="matrix(1.219 .123 -.123 1.219 10533.536 9729.872)" gradientUnits="userSpaceOnUse">
      <stop offset=".049" stop-color="#005fe7"/>
      <stop offset=".187" stop-color="#005ce1"/>
      <stop offset=".378" stop-color="#0052cf"/>
      <stop offset=".599" stop-color="#0043b2"/>
      <stop offset=".84" stop-color="#002d8a"/>
      <stop offset=".951" stop-color="#002275"/>
    </linearGradient>
    <linearGradient id="h" x1="-8778.807" x2="-8547.919" y1="-6369.407" y2="-6368.865" gradientTransform="matrix(1.219 .123 -.123 1.219 10533.536 9729.872)" gradientUnits="userSpaceOnUse">
      <stop offset="0" stop-color="#002079"/>
      <stop offset=".995" stop-color="#000f40"/>
    </linearGradient>
    <linearGradient id="j" x1="-7625.135" x2="-7696.164" y1="-8135.348" y2="-7336.961" gradientTransform="translate(10165.893 9899.103) scale(1.225)" gradientUnits="userSpaceOnUse">
      <stop offset="0" stop-color="#00feff"/>
      <stop offset=".298" stop-color="#04c9ff"/>
      <stop offset=".613" stop-color="#0897ff"/>
      <stop offset=".769" stop-color="#0a84ff"/>
      <stop offset=".791" stop-color="#0a84ff" stop-opacity=".934"/>
      <stop offset=".837" stop-color="#0a84ff" stop-opacity=".763"/>
      <stop offset=".9" stop-color="#0a84ff" stop-opacity=".487"/>
      <stop offset=".978" stop-color="#0a84ff" stop-opacity=".111"/>
      <stop offset="1" stop-color="#0a84ff" stop-opacity="0"/>
    </linearGradient>
    <linearGradient id="k" x1="-9051.981" x2="-8915.513" y1="-6804.517" y2="-6804.517" gradientTransform="matrix(1.219 .123 -.123 1.219 10533.536 9729.872)" gradientUnits="userSpaceOnUse">
      <stop offset="0" stop-color="#003eaa"/>
      <stop offset=".296" stop-color="#0054c5" stop-opacity=".683"/>
      <stop offset=".779" stop-color="#0076ef" stop-opacity=".194"/>
      <stop offset="1" stop-color="#0083ff" stop-opacity="0"/>
    </linearGradient>
    <linearGradient id="l" x1="589.737" x2="394.718" y1="337.635" y2="334.634" gradientUnits="userSpaceOnUse">
      <stop offset="0" stop-color="#00feff" stop-opacity=".25"/>
      <stop offset=".541" stop-color="#2ddfff" stop-opacity=".122"/>
      <stop offset="1" stop-color="#58c1ff" stop-opacity="0"/>
    </linearGradient>
    <linearGradient id="m" x1="266.139" x2="148.317" y1="-1141.252" y2="-1393.089" gradientTransform="matrix(.995 .1 -.1 .995 -179.129 1422.24)" gradientUnits="userSpaceOnUse">
      <stop offset=".19" stop-color="#002275" stop-opacity=".7"/>
      <stop offset=".633" stop-color="#009dc2" stop-opacity=".364"/>
      <stop offset=".944" stop-color="#00feff" stop-opacity=".1"/>
    </linearGradient>
    <linearGradient id="n" x1="17.917" x2="112.025" y1="610.396" y2="717.284" gradientTransform="rotate(5.73 1527.90274314 2923.65486284)" gradientUnits="userSpaceOnUse">
      <stop offset=".003" stop-color="#002275" stop-opacity=".8"/>
      <stop offset=".07" stop-color="#002479" stop-opacity=".742"/>
      <stop offset=".947" stop-color="#003eaa" stop-opacity="0"/>
    </linearGradient>
    <linearGradient id="o" x1="195.983" x2="196.031" y1="793.749" y2="740.325" gradientTransform="rotate(5.73 1527.90274314 2923.65486284)" gradientUnits="userSpaceOnUse">
      <stop offset="0" stop-color="#002275" stop-opacity=".6"/>
      <stop offset=".245" stop-color="#002275" stop-opacity=".341"/>
      <stop offset=".486" stop-color="#002275" stop-opacity=".152"/>
      <stop offset=".717" stop-color="#002275" stop-opacity=".039"/>
      <stop offset=".926" stop-color="#002275" stop-opacity="0"/>
    </linearGradient>
    <linearGradient id="p" x1="605.651" x2="913.995" y1="-76.365" y2="613.142" gradientUnits="userSpaceOnUse">
      <stop offset="0" stop-color="#00feff"/>
      <stop offset=".283" stop-color="#03dfff"/>
      <stop offset=".897" stop-color="#0992ff"/>
      <stop offset="1" stop-color="#0a84ff"/>
    </linearGradient>
    <linearGradient id="q" x1="717.202" x2="572.416" y1="431.21" y2="819.96" gradientUnits="userSpaceOnUse">
      <stop offset="0" stop-color="#0060df"/>
      <stop offset=".093" stop-color="#0067e5" stop-opacity=".806"/>
      <stop offset=".211" stop-color="#006eec" stop-opacity=".594"/>
      <stop offset=".333" stop-color="#0075f2" stop-opacity=".411"/>
      <stop offset=".456" stop-color="#007af7" stop-opacity=".262"/>
      <stop offset=".583" stop-color="#007efa" stop-opacity=".147"/>
      <stop offset=".713" stop-color="#0081fd" stop-opacity=".065"/>
      <stop offset=".848" stop-color="#0082fe" stop-opacity=".016"/>
      <stop offset="1" stop-color="#0083ff" stop-opacity="0"/>
    </linearGradient>
    <linearGradient id="r" x1="676.293" x2="784.288" y1="-32.525" y2="877.93" gradientUnits="userSpaceOnUse">
      <stop offset="0" stop-color="#75feff"/>
      <stop offset=".283" stop-color="#5adfff"/>
      <stop offset=".897" stop-color="#1692ff"/>
      <stop offset="1" stop-color="#0a84ff"/>
    </linearGradient>
    <linearGradient id="a" x1="771.892" x2="689.396" y1="409.329" y2="757.312" gradientUnits="userSpaceOnUse">
      <stop offset="0" stop-color="#9ee7ff"/>
      <stop offset=".144" stop-color="#8cdbff" stop-opacity=".879"/>
      <stop offset=".461" stop-color="#5ebdff" stop-opacity=".571"/>
      <stop offset=".924" stop-color="#168cff" stop-opacity=".083"/>
      <stop offset="1" stop-color="#0a84ff" stop-opacity="0"/>
    </linearGradient>
    <linearGradient id="s" x1="685.293" x2="760.868" y1="-14.837" y2="558.271" gradientUnits="userSpaceOnUse">
      <stop offset="0" stop-color="#00feff"/>
      <stop offset=".144" stop-color="#0bf7ff" stop-opacity=".879"/>
      <stop offset=".461" stop-color="#26e4ff" stop-opacity=".571"/>
      <stop offset=".924" stop-color="#51c6ff" stop-opacity=".083"/>
      <stop offset="1" stop-color="#58c1ff" stop-opacity="0"/>
    </linearGradient>
    <linearGradient id="b" x1="699.105" x2="1097.246" y1="19.682" y2="642.156" gradientUnits="userSpaceOnUse">
      <stop offset="0" stop-color="#00feff"/>
      <stop offset=".144" stop-color="#01efff" stop-opacity=".879"/>
      <stop offset=".461" stop-color="#04caff" stop-opacity=".571"/>
      <stop offset=".924" stop-color="#098eff" stop-opacity=".083"/>
      <stop offset="1" stop-color="#0a84ff" stop-opacity="0"/>
    </linearGradient>
    <linearGradient xlink:href="#a" id="t" x1="790.79" x2="350.208" y1="466.207" y2="809.78"/>
    <linearGradient xlink:href="#b" id="u" x1="394.976" x2="79.697" y1="233.658" y2="474.16"/>
    <linearGradient xlink:href="#b" id="v" x1="182.03" x2="166.823" y1="128.544" y2="260.843"/>
    <linearGradient xlink:href="#b" id="w" x1="328.879" x2="231.871" y1="424.921" y2="618.939"/>
    <radialGradient id="i" cx="620.422" cy="387.176" r="751.569" fx="753.83160365" fy="264.92541351" gradientUnits="userSpaceOnUse">
      <stop offset=".156" stop-color="#58c1ff"/>
      <stop offset=".241" stop-color="#4cb8ff"/>
      <stop offset=".394" stop-color="#2ea0ff"/>
      <stop offset=".541" stop-color="#0a84ff"/>
      <stop offset=".763" stop-color="#0060df"/>
      <stop offset=".798" stop-color="#0067de"/>
      <stop offset=".85" stop-color="#007bdd"/>
      <stop offset=".913" stop-color="#009cda"/>
      <stop offset=".982" stop-color="#00c8d7"/>
    </radialGradient>
  </defs>
  <g style="isolation:isolate">
    <path fill="#061a58" d="m953.092 438.13-20.312-67.589-58.091-109.917-66.446-70.232-70.541-50.501-61.249-24.107-73.492-26.214-121.005-7.724-76.3 13.809-62.258 19.192-110.472 64.832-69.045 77.237-63.662 103.685-25.043 88.237-4.681 133.877 23.873 91.28 52.661 103.919 37.141 50.193 51.359 47.218 64.142 43.509 79.093 34.497 132.367 15.58 69.114 1.93 102.294-28.891 91.431-50.321 58.825-50.321 45.615-54.571 64.487-126.586 14.238-86.593-4.043-135.428z"/>
    <path fill="#133691" d="m484.172 142.682-54.188 53.912 88.395 35.933-34.207-89.845z"/>
    <path fill="#1943ae" d="m518.379 232.527-34.207-89.845 99.964 8.074-65.757 81.771z"/>
    <path fill="#2053cf" d="m518.379 232.527 171.138-5.207-105.381-76.564-65.757 81.771z"/>
    <path fill="#2660eb" d="m689.517 227.32-105.381-76.564 92.668-.576 12.713 77.14z"/>
    <path fill="#306dff" d="m689.517 227.32 97.448-6.381-110.161-70.759 12.713 77.14z"/>
    <path fill="#235adb" d="M786.965 220.939 676.804 150.18l54.763-5.843 55.398 76.602z"/>
    <path fill="#2660eb" d="m786.965 220.939-55.398-76.602 76.676 46.055-21.278 30.547z"/>
    <path fill="#2053cf" d="m860.33 267.848-73.365-46.909 21.278-30.547 52.087 77.456z"/>
    <path fill="#1c4abd" d="m786.965 220.939-12.271 52.478 67.099 26.892-54.828-79.37z"/>
    <path fill="#1a46b4" d="m786.965 220.939 73.365 46.909-18.537 32.461-54.828-79.37z"/>
    <path fill="#2660eb" d="m689.517 227.32 97.448-6.381-12.271 52.478-85.177-46.097z"/>
    <path fill="#235adb" d="m689.517 227.32 85.177 46.097-63.076 72.452-22.101-118.549z"/>
    <path fill="#1f51ca" d="m689.517 227.32-76.993 69.887 99.094 48.662-22.101-118.549z"/>
    <path fill="#1f50c9" d="m518.379 232.527 171.138-5.207-76.993 69.887-94.145-64.68z"/>
    <path fill="#2053cf" d="m711.618 345.869 63.076-72.452 46.601 90.625-109.677-18.173z"/>
    <path fill="#1b48b9" d="m774.694 273.417 46.601 90.625 20.498-63.733-67.099-26.892z"/>
    <path fill="#173fa5" d="m821.295 364.042 20.498-63.733 48.822 116.444-69.32-52.711z"/>
    <path fill="#12348d" d="m841.793 300.309 74.409 54.646-25.587 61.798-48.822-116.444z"/>
    <path fill="#143895" d="m841.793 300.309 74.409 54.646-55.872-87.107-18.537 32.461z"/>
    <path fill="#0f2f82" d="m860.33 267.848 14.359-7.224 41.513 94.331-55.872-87.107z"/>
    <path fill="#05154c" d="m916.202 354.955 16.578 15.586-58.091-109.917 41.513 94.331z"/>
    <path fill="#163c9e" d="m860.33 267.848 14.359-7.224-66.446-70.232 52.087 77.456z"/>
    <path fill="#051753" d="M949.359 490.939 932.78 370.541l20.312 67.59-4.003 52.808h.27z"/>
    <path fill="#061a57" d="m916.202 354.955 33.157 135.984-16.579-120.398-16.578-15.586z"/>
    <path fill="#05154c" d="m890.615 416.753 58.744 74.186-33.157-135.984-25.587 61.798z"/>
    <path fill="#081f63" d="m949.089 490.939 4.003-52.808 4.043 135.427-7.776-82.619h-.27z"/>
    <path fill="#12348d" d="m939.515 597.966 17.62-24.408-7.776-82.619-9.844 107.027z"/>
    <path fill="#123392" d="m942.898 660.151-14.09 6.807 28.327-93.4-14.237 86.593z"/>
    <path fill="#0c2674" d="m928.808 666.958 28.327-93.4-17.62 24.408-10.707 68.992z"/>
    <path fill="#081f63" d="m939.515 597.966 9.844-107.027-30.179 35.7 20.335 71.327z"/>
    <path fill="#0f2f82" d="m928.808 666.958 10.707-68.992-58.212 98.098 47.505-29.106z"/>
    <path fill="#061a57" d="m890.615 416.753 58.744 74.186-30.179 35.7-28.565-109.886z"/>
    <path fill="#081e5f" d="m939.515 597.966-20.335-71.327-30.69 87.857 51.025-16.53z"/>
    <path fill="#092167" d="m881.303 696.064 58.212-98.098-51.025 16.53-7.187 81.568z"/>
    <path fill="#163aa2" d="m878.41 786.737 64.488-126.586-14.09 6.807-50.398 119.779z"/>
    <path fill="#163aa2" d="m878.41 786.737 50.398-119.779-47.152 87.319-3.246 32.46z"/>
    <path fill="#0e2b7e" d="m881.656 754.277 47.152-87.319-47.505 29.106.353 58.213z"/>
    <path fill="#123392" d="m832.795 841.308 48.861-87.031-3.246 32.46-45.615 54.571z"/>
    <path fill="#1a45b2" d="m770.629 869.98 62.166-28.672-58.825 50.321-3.341-21.649"/>
    <path fill="#123392" d="m832.795 841.308 48.861-87.031L770.629 869.98l62.166-28.672z"/>
    <path fill="#133493" d="m770.629 869.98 3.341 21.649-51.851 16.08 48.51-37.729z"/>
    <path fill="#1a45b2" d="m682.539 941.95 39.58-34.241 51.851-16.08-91.431 50.321z"/>
    <path fill="#1a45b2" d="m682.539 941.95 39.58-34.241-128.638 48.107 89.058-13.866z"/>
    <path fill="#1a45b2" d="m580.245 970.841 102.294-28.891-89.058 13.866-13.236 15.025zm-69.114-1.93 69.114 1.93 13.236-15.025-82.35 13.095z"/>
    <path fill="#1f51ca" d="m378.764 953.331-7.55-12.07 139.917 27.65-132.367-15.58z"/>
    <path fill="#173fad" d="m378.764 953.331-7.55-12.07-71.543-22.427 79.093 34.497zm-143.235-78.006-51.359-47.218 115.501 90.727-64.142-43.509z"/>
    <path fill="#1b47b5" d="m184.17 828.107-37.141-50.193 24.668 8.143 12.473 42.05z"/>
    <path fill="#163aa3" d="m184.17 828.107 115.501 90.727-37.786-48.304-77.715-42.423z"/>
    <path fill="#173fad" d="m184.17 828.107 77.715 42.423-90.188-84.473 12.473 42.05z"/>
    <path fill="#133595" d="m261.885 870.53 109.329 70.731-71.543-22.427-37.786-48.304z"/>
    <path fill="#163ba4" d="m261.885 870.53 109.329 70.731 1.812-41.592-111.141-29.139z"/>
    <path fill="#163aa2" d="m430.646 926.684-59.432 14.577 1.812-41.592 57.62 27.015z"/>
    <path fill="#2053cf" d="m171.697 786.057-24.668-8.143-16.5-74.077 41.168 82.22z"/>
    <path fill="#306dff" d="M147.029 777.914 94.368 673.995l36.161 29.842 16.5 74.077z"/>
    <path fill="#1f51ca" d="m77.048 562.119 53.481 141.718-36.161-29.842"/>
    <path fill="#2257d7" d="m94.368 673.995-23.873-91.28 6.553-20.596 17.32 111.876z"/>
    <path fill="#11318d" d="m77.048 562.119-6.553 20.596 4.681-133.877 1.872 113.281z"/>
    <path fill="#0c2674" d="m100.219 360.601 16.384-6.085-41.427 94.322 25.043-88.237z"/>
    <path fill="#102f88" d="m75.176 448.838 31.363-5.851 10.064-88.471-41.427 94.322z"/>
    <path fill="#133595" d="m77.048 562.119-1.872-113.281 31.363-5.851-29.491 119.132z"/>
    <path fill="#12328e" d="m106.539 442.987-2.107 96.663-27.384 22.469 29.491-119.132z"/>
    <path fill="#0b2572" d="m163.881 256.916-47.278 97.6-16.384 6.085 63.662-103.685z"/>
    <path fill="#020b2e" d="m163.881 256.916 60.385-57.81 8.66-19.427-69.045 77.237z"/>
    <path fill="#092064" d="m232.926 179.679 71.854-35.809-80.514 55.236 8.66-19.427z"/>
    <path fill="#030f41" d="m232.926 179.679 110.472-64.832-38.618 29.023-71.854 35.809"/>
    <path fill="#081e5f" d="m304.78 143.87 100.876-48.215-62.258 19.192-38.618 29.023z"/>
    <path fill="#081f61" d="m405.656 95.655-39.438 42.597-61.438 5.618 100.876-48.215z"/>
    <path fill="#0d2a78" d="m366.218 138.252 93.972-37.682-54.534-4.915-39.438 42.597z"/>
    <path fill="#11338b" d="m481.956 81.846-76.3 13.809 54.534 4.915 21.766-18.724z"/>
    <path fill="#153a99" d="m554.122 99.634-93.932.936 21.766-18.724"/>
    <path fill="#0d2a78" d="m481.956 81.846 121.005 7.724-48.839 10.064-72.166-17.788z"/>
    <path fill="#2053ce" d="m554.122 99.634 48.839-10.064 73.492 26.214-122.331-16.15z"/>
    <path fill="#1e4dc3" d="m731.567 144.337-55.114-28.553 61.249 24.107-6.135 4.446z"/>
    <path fill="#1e4fc7" d="m731.567 144.337 6.135-4.446 70.541 50.501-76.676-46.055z"/>
    <path fill="#1a45b2" d="m371.214 941.261 139.917 27.65-80.485-42.227-59.432 14.577z"/>
    <path fill="#163aa2" d="m511.131 968.911-80.485-42.227 78.765-14.713 1.72 56.94z"/>
    <path fill="#1a45b2" d="m593.481 955.816-82.35 13.095-1.72-56.94 84.07 43.845z"/>
    <path fill="#1741aa" d="m593.481 955.816-84.07-43.845L625.27 880.76l-31.789 75.056z"/>
    <path fill="#1a45b2" d="m722.119 907.709-128.638 48.107 31.789-75.056"/>
    <path fill="#133493" d="m722.119 907.709 5.88-75.1L625.27 880.76l96.849 26.949z"/>
    <path fill="#163aa2" d="m722.119 907.709 5.88-75.1 42.63 37.371-48.51 37.729z"/>
    <path fill="#133493" d="m770.629 869.98-42.63-37.371 102.998-68.632-60.368 106.003z"/>
    <path fill="#1a45b2" d="m770.629 869.98 60.368-106.003 50.659-9.7L770.629 869.98z"/>
    <path fill="#092167" d="m881.656 754.277-.353-58.213-50.306 67.913 50.659-9.7z"/>
    <path fill="#2258d9" d="m676.453 115.784.351 34.396 54.763-5.843"/>
    <path fill="#2257d7" d="m676.804 150.18-.351-34.396-122.331-16.15 122.682 50.546z"/>
    <path fill="#2257d7" d="m554.122 99.634 30.014 51.122 92.668-.576-122.682-50.546z"/>
    <path fill="#1a46b3" d="m554.122 99.634 30.014 51.122-99.964-8.074 69.95-43.048z"/>
    <path fill="#163c9f" d="m460.19 100.57 23.982 42.112 69.95-43.048-93.932.936z"/>
    <path fill="#103186" d="m366.218 138.252 93.972-37.682 23.982 42.112-117.954-4.43z"/>
    <path fill="#163c9e" d="m429.984 196.594-63.766-58.342 117.954 4.43-54.188 53.912z"/>
    <path fill="#031043" d="m304.78 143.87-80.514 55.236 38.151 36.746 42.363-91.982z"/>
    <path fill="#030f41" d="m366.218 138.252-103.801 97.6 42.363-91.982 61.438-5.618z"/>
    <path fill="#05164e" d="m262.417 235.852 66.235 11.048 37.566-108.648-103.801 97.6z"/>
    <path fill="#092064" d="m328.652 246.9 37.566-108.648 63.766 58.342L328.652 246.9z"/>
    <path fill="#030f41" d="m163.881 256.916 4.037 39.262 56.348-97.072-60.385 57.81z"/>
    <path fill="#091f64" d="m116.603 354.516 47.278-97.6 4.037 39.262-51.315 58.338z"/>
    <path fill="#041345" d="m167.918 296.178 56.348-97.072 38.151 36.746-94.499 60.326z"/>
    <path fill="#0a226b" d="m164.505 380.339 3.413-84.161-51.315 58.338 47.902 25.823z"/>
    <path fill="#091f64" d="m164.505 380.339 3.413-84.161 66.59 54.209-70.003 29.952z"/>
    <path fill="#061853" d="m234.508 350.387 27.909-114.535-94.499 60.326 66.59 54.209z"/>
    <path fill="#030f42" d="m234.508 350.387 27.909-114.535 66.235 11.048-94.144 103.487z"/>
    <path fill="#0b2572" d="m106.539 442.987 10.064-88.471 47.902 25.823-57.966 62.648z"/>
    <path fill="#173da9" d="M130.529 703.837 104.432 539.65l-27.384 22.469 53.481 141.718z"/>
    <path fill="#1a45b2" d="m171.697 786.057-41.168-82.22 44.118 6.202-2.95 76.018z"/>
    <path fill="#1741aa" d="m130.529 703.837 44.118 6.202-30.894-72.322-13.224 66.12z"/>
    <path fill="#10308b" d="M130.529 703.837 104.432 539.65l39.321 98.067-13.224 66.12z"/>
    <path fill="#123390" d="M171.697 786.057 218.064 795l-43.417-84.961-2.95 76.018z"/>
    <path fill="#133493" d="m171.697 786.057 90.188 84.473L218.064 795l-46.367-8.943z"/>
    <path fill="#1a45b2" d="m261.885 870.53 32.632-31.461L218.064 795l43.821 75.53z"/>
    <path fill="#163aa2" d="m261.885 870.53 111.141 29.139-78.509-60.6-32.632 31.461z"/>
    <path fill="#1a45b2" d="m373.026 899.669 57.62 27.015 78.765-14.713-136.385-12.302z"/>
    <path fill="#123392" d="m373.026 899.669 37.674-79.078 98.711 91.38-136.385-12.302z"/>
    <path fill="#102f87" d="m104.432 539.65 64.364-.092-62.257-96.571-2.107 96.663z"/>
    <path fill="#081f63" d="m106.539 442.987 62.257 96.571-4.291-159.219-57.966 62.648z"/>
    <path fill="#163ba4" d="m104.432 539.65 39.321 98.067 25.043-98.159-64.364.092z"/>
    <path fill="#11318c" d="m143.753 637.717 25.043-98.159 31.129 77.563-56.172 20.596z"/>
    <path fill="#123390" d="m174.647 710.039 25.278-92.918-56.172 20.596 30.894 72.322z"/>
    <path fill="#123392" d="m174.647 710.039 119.367 74.174-94.089-167.092-25.278 92.918z"/>
    <path fill="#163aa2" d="m218.064 795 75.95-10.787-119.367-74.174L218.064 795z"/>
    <path fill="#1741aa" d="m294.517 839.069-.503-54.856L218.064 795l76.453 44.069z"/>
    <path fill="#123392" d="m294.517 839.069-.503-54.856L410.7 820.591l-116.183 18.478zm0 0 78.509 60.6 37.674-79.078-116.183 18.478z"/>
    <path fill="#0e2b80" d="m509.411 911.971 9.908-90.142-108.619-1.238 98.711 91.38z"/>
    <path fill="#143698" d="m509.411 911.971 9.908-90.142L625.27 880.76l-115.859 31.211z"/>
    <path fill="#0d2878" d="m625.27 880.76-4.122-101.332-101.829 42.401L625.27 880.76z"/>
    <path fill="#123392" d="m625.27 880.76-4.122-101.332 106.851 53.181L625.27 880.76z"/>
    <path fill="#081f63" d="m621.148 779.428 66.111-60.032 40.74 113.213-106.851-53.181z"/>
    <path fill="#061a57" d="m727.999 832.609 49.976-151.772-90.716 38.559 40.74 113.213z"/>
    <path fill="#0f2f82" d="m830.997 763.977-102.998 68.632 49.976-151.772 53.022 83.14z"/>
    <path fill="#092167" d="m830.997 763.977 50.306-67.913-103.328-15.227 53.022 83.14z"/>
    <path fill="#05164f" d="m881.303 696.064-103.328-15.227 110.515-66.341-7.187 81.568z"/>
    <path fill="#051753" d="m919.18 526.639-71.91-51.326 41.22 139.183 30.69-87.857"/>
    <path fill="#031043" d="m919.18 526.639-28.565-109.886-43.345 58.56 71.91 51.326zM777.975 680.837l110.515-66.341-107.113-47.814-3.402 114.155z"/>
    <path fill="#030f41" d="M777.975 680.837 677.818 579.356l9.441 140.04 90.716-38.559z"/>
    <path fill="#092167" d="m621.148 779.428-76.897-68.272 143.008 8.24-66.111 60.032z"/>
    <path fill="#0f2f82" d="m621.148 779.428-101.829 42.401 24.932-110.673 76.897 68.272z"/>
    <path fill="#123390" d="m410.7 820.591 108.619 1.238-134.252-88.036 25.633 86.798z"/>
    <path fill="#0f2d84" d="m410.7 820.591-25.633-86.798-91.053 50.42L410.7 820.591z"/>
    <path fill="#0e2b7e" d="m294.014 784.213 17.031-88.149 74.022 37.729-91.053 50.42z"/>
    <path fill="#0f2e86" d="m311.045 696.064-111.12-78.943 94.089 167.092 17.031-88.149z"/>
    <path fill="#081f63" d="m519.319 821.829 24.932-110.673-159.184 22.637 134.252 88.036z"/>
    <path fill="#0a236c" d="m168.796 539.558 31.935-102.212-36.226-57.007 4.291 159.219z"/>
    <path fill="#081f63" d="m164.505 380.339 36.226 57.007 33.777-86.959-70.003 29.952z"/>
    <path fill="#05164e" d="m234.508 350.387 140.139-40.963-45.995-62.524-94.144 103.487z"/>
    <path fill="#030f41" d="m234.508 350.387 140.139-40.963-74.022 151.637-66.117-110.674z"/>
    <path fill="#05164f" d="M777.975 680.837 677.818 579.356l103.559-12.674-3.402 114.155z"/>
    <path fill="#030f42" d="m888.49 614.496-41.22-139.183-65.893 91.369 107.113 47.814z"/>
    <path fill="#030f41" d="M687.259 719.396 572.721 608.341l105.097-28.985 9.441 140.04z"/>
    <path fill="#05164f" d="m544.251 711.156 143.008 8.24-114.538-111.055-28.47 102.815z"/>
    <path fill="#031042" d="m544.251 711.156-78.334-63.961 106.804-38.854-28.47 102.815z"/>
    <path fill="#0f2e82" d="m847.27 475.313 43.345-58.56-69.32-52.711 25.975 111.271z"/>
    <path fill="#061853" d="m234.508 350.387 66.117 110.674-99.894-23.715 33.777-86.959z"/>
    <path fill="#081f63" d="m200.731 437.346 99.894 23.715L233.07 567.76l-32.339-130.414z"/>
    <path fill="#081e5f" d="m374.647 309.424 55.337-112.83L328.652 246.9l45.995 62.524z"/>
    <path fill="#091f64" d="m233.07 567.76-32.339-130.414-31.935 102.212"/>
    <path fill="#11318c" d="m168.796 539.558 64.274 28.202-33.145 49.361-31.129-77.563z"/>
    <path fill="#0e2b7e" d="m233.07 567.76 77.975 128.304-111.12-78.943 33.145-49.361z"/>
    <path fill="#092167" d="m311.045 696.064 10.421-155.231-88.396 26.927 77.975 128.304z"/>
    <path fill="#061a57" d="m311.045 696.064 154.872-48.869-144.451-106.362-10.421 155.231z"/>
    <path fill="#05164f" d="m465.917 647.195-15.092-120.017-129.359 13.655 144.451 106.362z"/>
    <path fill="#041245" d="m572.721 608.341-106.804 38.854-15.092-120.017 121.896 81.163z"/>
    <path fill="#030f42" d="m450.825 527.178 109.236-40.964 12.66 122.127-121.896-81.163z"/>
    <path fill="#092167" d="m385.067 733.793 159.184-22.637-78.334-63.961-80.85 86.598z"/>
    <path fill="#0c2674" d="m385.067 733.793-74.022-37.729 154.872-48.869-80.85 86.598z"/>
    <path fill="#0c2771" d="m374.647 309.424 94.863 10.061-39.526-122.891-55.337 112.83z"/>
    <path fill="#153a99" d="m518.379 232.527-88.395-35.933 39.526 122.891 48.869-86.958z"/>
    <path fill="#163da0" d="m518.379 232.527 94.145 64.68-143.014 22.278 48.869-86.958z"/>
    <path fill="#11338b" d="m469.51 319.485 140.283 74.597-49.732 92.132-90.551-166.729z"/>
    <path fill="#163ca0" d="m609.793 394.082 2.731-96.875-143.014 22.278 140.283 74.597z"/>
    <path fill="#1a45b2" d="m609.793 394.082 2.731-96.875 99.094 48.662-101.825 48.213z"/>
    <path fill="#0c266e" d="m469.51 319.485 90.551 166.729-158.824-79.771 68.273-86.958z"/>
    <path fill="#071b5c" d="m450.825 527.178 109.236-40.964-158.824-79.771 49.588 120.735z"/>
    <path fill="#0f2f82" d="m560.061 486.214 140.077-25.656-90.345-66.476-49.732 92.132z"/>
    <path fill="#1741aa" d="m711.618 345.869-11.48 114.689-90.345-66.476 101.825-48.213z"/>
    <path fill="#153a99" d="m711.618 345.869 66.116 90.039-77.596 24.65 11.48-114.689z"/>
    <path fill="#1945b1" d="m821.295 364.042-109.677-18.173 66.116 90.039 43.561-71.866z"/>
    <path fill="#12338c" d="m777.734 435.908 69.536 39.405-25.975-111.271-43.561 71.866z"/>
    <path fill="#081e60" d="m781.377 566.682 65.893-91.369-69.536-39.405 3.643 130.774z"/>
    <path fill="#081e5f" d="m781.377 566.682-3.643-130.774-77.596 24.65 81.239 106.124z"/>
    <path fill="#061a57" d="m700.138 460.558-22.32 118.798 103.559-12.674"/>
    <path fill="#031042" d="m560.061 486.214 140.077-25.656-22.32 118.798-117.757-93.142z"/>
    <path fill="#05164f" d="m572.721 608.341 105.097-28.985-117.757-93.142 12.66 122.127z"/>
    <path fill="#05174f" d="m374.647 309.424 26.59 97.019 68.273-86.958-94.863-10.061z"/>
    <path fill="#061853" d="m374.647 309.424-74.022 151.637 100.612-54.618-26.59-97.019z"/>
    <path fill="#030f41" d="m401.237 406.443-79.771 134.39 129.359-13.655-49.588-120.735z"/>
    <path fill="#041245" d="m321.466 540.833 79.771-134.39-100.612 54.618 20.841 79.772z"/>
    <path fill="#061a58" d="m233.07 567.76 67.555-106.699 20.841 79.772-88.396 26.927z"/>
    <path fill="#58c1ff" fill-opacity=".3" d="M959.127 573.683v-.209l-4.042-135.4c0-.019-.006-.037-.007-.057s0-.065-.006-.1-.016-.093-.024-.14-.022-.12-.038-.179c0-.014 0-.028-.008-.043l-20.3-67.565v-.024c0-.015-.013-.028-.018-.043-.012-.037-.026-.073-.041-.109s-.04-.1-.063-.145c-.01-.02-.014-.041-.025-.061l-58.098-109.919c-.01-.02-.025-.035-.036-.054-.022-.038-.045-.076-.069-.113s-.043-.065-.066-.1-.027-.039-.042-.058-.042-.044-.062-.067-.025-.035-.04-.051L809.7 189.019c-.01-.01-.022-.018-.032-.029l-.046-.046c-.038-.037-.083-.068-.125-.1s-.055-.054-.088-.077l-.011-.008-.013-.009-70.518-50.485c-.011-.008-.023-.012-.034-.019s-.044-.031-.068-.046c-.047-.03-.1-.052-.146-.077s-.1-.054-.151-.076c-.012 0-.021-.012-.033-.017l-61.206-24.09h-.005l-.037-.015c-.01 0-.02 0-.03-.008s-.02-.011-.031-.014h-.019l-73.475-26.217c-.023-.008-.047-.01-.07-.017-.047-.015-.093-.028-.141-.04s-.086-.02-.13-.027-.089-.012-.135-.016c-.024 0-.046-.01-.07-.012l-121-7.724h-.058c-.049 0-.1.006-.149.008a1.987 1.987 0 0 0-.2.013l-.05.006h-.026L405.3 93.687c-.016 0-.03.01-.045.013s-.046.006-.069.012-.033.011-.05.016c-.046.012-.092.022-.136.038l-62.19 19.171-.021.009c-.046.015-.091.037-.137.055s-.107.043-.16.07c-.026.013-.053.025-.079.039-.009.005-.018.007-.027.012l-110.473 64.833c-.008 0-.013.011-.021.015-.032.019-.061.043-.092.064s-.057.036-.085.057-.05.043-.075.064-.045.034-.066.053-.052.057-.079.084-.042.035-.061.055l-.027.03-69.017 77.206c-.01.012-.017.025-.027.037s-.033.038-.049.057-.03.042-.046.063-.041.059-.061.089c-.009.014-.021.025-.03.04l-.023.038-63.639 103.648c-.012.019-.018.04-.029.06-.021.036-.041.072-.06.109s-.036.083-.053.125-.037.1-.053.144c-.007.022-.018.04-.025.062l-25.043 88.237c0 .012 0 .024-.007.037s-.013.042-.018.064l-.007.024v.027c-.009.046-.011.093-.017.14s-.016.1-.018.147c0 .013 0 .025-.005.038L68.5 582.645c0 .029.005.056.006.085s0 .083 0 .125.01.083.015.125.018.109.03.163c.006.026.005.052.012.078l.015.056L92.433 674.5l.01.036c.007.023.016.046.023.069a1.953 1.953 0 0 0 .077.191c.014.032.021.065.037.1l.008.016v.009l52.649 103.893.01.015c.009.018.022.034.032.051.033.058.067.115.1.17.011.016.018.034.029.049l37.117 50.162.008.011.01.014c.005.007.012.011.017.018s.03.04.046.06c.033.04.073.076.11.114s.051.063.081.091l51.378 47.231c.04.037.086.064.128.1s.065.06.1.086l64.142 43.509c.014.009.03.012.044.021l.015.008c.05.032.1.063.154.09.027.014.053.029.08.041.01 0 .019.012.03.017l79.094 34.5c.026.011.052.015.079.025.058.022.116.042.176.059.031.009.06.018.091.026.047.011.094.018.141.026.027 0 .052.014.08.018L510.9 970.9c.048.006.1.006.144.008h.034l69.114 1.93h.074a2 2 0 0 0 .387-.04c.028-.006.053-.018.081-.025.019 0 .038 0 .056-.008l102.294-28.891c.021-.006.038-.017.059-.023s.061-.015.091-.026.053-.026.08-.038l.055-.026c.04-.018.081-.034.12-.054l.016-.006.042-.023h.006l91.377-50.291.027-.016.038-.023c.053-.032.1-.07.149-.106.041-.03.085-.054.123-.086h.005l58.828-50.329c.023-.019.039-.043.061-.063s.052-.046.077-.071.05-.053.074-.08c.007-.008.016-.014.023-.022l45.605-54.559.009-.01c.007-.008.011-.018.018-.026a2 2 0 0 0 .161-.238c.017-.029.039-.056.054-.085l.014-.024L944.68 661.06c.015-.03.022-.062.036-.093.023-.05.049-.1.067-.151.008-.023.011-.047.019-.071.017-.054.03-.108.042-.163.008-.036.022-.07.028-.107l14.233-86.575v-.069c0-.017.009-.048.012-.073s.008-.05.01-.075ZM236.773 873.752l-13.3-12.232 29.922 23.5ZM430.911 924.6l-46.749-21.918 110.653 9.981Zm17.05-399.131L325.22 538.425l75.69-127.514ZM405.118 410.63l149.957 75.318-103.138 38.676Zm43.967 118.743 14.266 113.449L326.8 542.281Zm12.477 117.1-148.325 46.8 9.979-148.669Zm-8.208-115.206 114.966 76.546-100.732 36.645Zm1.832-3.587L558.339 489l11.955 115.326Zm158.49-133.223 95.6-45.266L698.5 456.868Zm81.548 64.969L563.8 483.5l46.659-86.44Zm-135.168 22.588-85.615-157.642L607.077 394.9Zm-4.8-.449L404.32 405.754l64.88-82.641Zm-233.07 54.13-19.235-73.623 92.857-50.409Zm-12.713 153.931-73.356-120.7 83.158-25.332Zm149.788-38.234-74.629 79.935-68.325-34.827Zm110.5-39.844-26.617 96.12-73.234-59.8Zm-7.218-120.822 110.944 87.753-99.016 27.307Zm2.227-3.339 132.865-24.337-21.172 112.685Zm137.665-29.655 10.655-106.48 61.383 83.594Zm73.378-19.113 3.4 121.937-75.757-98.956Zm-163.93-47.74 2.552-90.506 92.579 45.462Zm-4-.077-132.134-70.265 134.708-20.985Zm-205.767 11.282-24.766-90.362 88.355 9.371Zm-3.227 3.357-93.725 50.88 68.956-141.258ZM319.045 539.48l-81.4 24.8 62.209-98.258ZM304.3 688.82l-101.631-72.2 30.315-45.146Zm8.2 10.233 68.3 34.813-84.01 46.524Zm153.6-49.126 73.349 59.89L390.4 731.014Zm107.648-37.8 108.259 104.962L546.84 709.3Zm2.874-2.785 99.364-27.4 8.926 132.4Zm124.652-144 76.387 99.786-97.375 11.918Zm78.558-25.942 64.51 36.558-61.132 84.765Zm.68-4.213 39.949-65.91 23.823 102.05Zm-2.937-2.871-61.437-83.668 101.914 16.887Zm-161.528-135.6 72.16-65.5 20.714 111.107Zm-142.776 20.159 45.78-81.46 88.193 60.591Zm-95.571-9.138 51.9-105.812 37.068 115.247Zm-77.253 149.129-62.9-105.284 133.314-38.969Zm-66.562 105.868L203.462 440.05l93.973 22.31Zm-33.512 50.132-27.9-69.51 57.6 25.274Zm108.464 84.082-15.753 81.536-87.029-154.555Zm75.018 39.8 23.867 80.818L299.076 783.7Zm157.807-23.207L518 818.574l-127.4-83.547Zm140.724 7.575-61.254 55.622-71.248-63.257Zm-2.212-136.526 94.309 95.555-85.419 36.307Zm1.925-3.745 97.208-11.9-3.192 107.155Zm164.409-101.06 38.83 131.115-100.9-45.041ZM824.5 369l63.329 48.155-39.6 53.5Zm-109.021-24.519 58.786-67.524 43.435 84.462Zm-2.653-3.046-20.575-110.361 79.294 42.914Zm-100.474-46.773-87.8-60.322 159.607-4.856Zm-142.34 19.849L433.2 200.06l82.325 33.465Zm-95.712-8.93-42.628-57.948 93.916-46.625Zm-2.962 2.724-130.565 38.168 87.716-96.42Zm-74.859 149.717-93.053-22.092 31.463-81Zm-66.328 106.273-58.911-25.849 29.27-93.684ZM197.3 615.953l-50.672 18.58 22.592-88.548ZM288.443 778.4l-111.474-69.27 23.606-86.775Zm113.5 41.562L296.5 836.729l-.457-49.789Zm-13.419-81.5 123.974 81.3-100.3-1.143ZM545.457 714.9l71.979 63.907L522.12 818.5Zm140.933 7.986L724.43 828.6l-99.772-49.657Zm3.391-2.389 84.914-36.097-46.78 142.07Zm93.506-150.773 100.882 45.032-104.086 62.483Zm67.552-89.407L916.8 527.4l-28.151 80.586Zm-.75-5.45 39.645-53.561 26.126 100.5Zm-26.457-111.56 18.408-57.234 43.845 104.571Zm-2.765-4.469-41.945-81.571 60.4 24.205Zm-124.3-129.976 87.834-5.751-11.06 47.3ZM522.66 230.4l61.842-76.9 99.106 72Zm-3.653-1.841-31.84-83.624 93.043 7.515Zm-4.132.389-81.338-33.068 49.863-49.608ZM332.14 242.936l34.974-101.153 59.367 54.317Zm-93.832 100.3L263.92 238.13l60.78 10.139Zm-38.01 89.7-32.843-51.683 63.466-27.153Zm-1.754 4.7-28.073 89.853-3.771-139.967Zm-32.322 103.925-22.892 89.727-35.942-89.642Zm-59.745-3.914 1.919-88.089 56.735 88Zm90.5 82.684-22.751 83.633-27.807-65.094Zm91.3 162.676-69.077 9.812-39.5-77.284Zm3.751 3.508.45 49.074-68.4-39.425Zm115.223 36.649-34.972 73.407-72.879-56.254Zm4.078.742 92.409 85.545-127.67-11.516Zm4.532-1.255 101.228 1.149-9.233 84Zm203.4-40.272 3.86 94.9-99.221-55.191Zm4.017.347L723.4 832.555l-96.256 45.117Zm155.272-97.258 49.7 77.933-96.54 64.332Zm3.46-2.013 95.693 14.1-46.589 62.9Zm1.783-3.78 102.354-61.443-6.647 75.544Zm135.193-146.419 18.075 63.4-45.355 14.692Zm-24.047-107.821 51.837 65.465-26.631 31.5ZM846.43 306.2l67.324 49.443-23.154 55.91Zm-69.4-34 10.852-46.41 48.489 70.193Zm-85.83-46.994-11.686-70.911 101.265 65.046Zm-4.445-2.368-96.515-70.12 84.869-.528Zm-196.329-81.657 63.005-38.774 27.033 46.046Zm-60.5 52.65-58.338-53.375 107.912 4.052ZM327.314 244.65l-60.587-10.106 94.948-89.274Zm-94 102.188-61.986-50.463 87.967-56.157Zm-2.635 3.013-64.047 27.4 3.123-77ZM166.6 532.467l-57.545-89.26 53.584-57.907ZM141.674 637.91l-10.92 54.6L109.2 556.924Zm2.774 6.527 26.968 63.128-38.511-5.414Zm69.969 147.823-40.656-7.842 2.588-66.654Zm76.8 47.215-28.884 27.845-38.784-66.85Zm3.446 2.232 69.352 53.532-98.18-25.739Zm226.316-16.667 99.012 55.071-108.272 29.167Zm204.758 10.838-5.421 69.253-89.31-24.851Zm99.345-65.556L770.1 866.86l-38.82-34.034Zm54.258-68.247.306 50.551-43.991 8.423Zm11.026-86.086 44.725-14.489-51.025 85.987Zm31.03-88.874 25.391-30.034-8.287 90.044Zm-28.483-110.683 22.8-55.057 29.541 121.151Zm-48.5-116.679 16.016-28.046 48.272 75.26Zm-2.781-3.195-47.377-68.583 63.395 40.533ZM682.663 151.566l47.963-5.118 48.519 67.091Zm-97.386-2.817-26.42-45 107.993 44.493Zm-100.391-8.855-21.274-37.358 83.329-.831Zm-4.231.654L375.7 136.607l83.62-33.531Zm-212.125 86.81 37.583-81.6 54.505-4.983Zm-6.752 5.1-34.356-33.092 72.507-49.743Zm-2.576 3.073-85.422 54.533 50.935-87.749ZM162.637 377.06l-42.871-23.112 45.926-52.211Zm-1.352 3.815-52.069 56.274 9.041-79.47Zm-58.833 157.813-22.015 18.064 23.708-95.775Zm.552 4.721 22.47 141.369-46.048-122.023Zm69.576 168.359L170 778.2l-35.978-71.855Zm44.212 85.024 36.547 62.994-75.219-70.453Zm154.166 104.4-1.589 36.491-95.92-62.056Zm3.936 1.559 49.776 23.339-51.341 12.594Zm132.589 11.612 1.546 51.183-72.347-37.958Zm114.346-30.607-29.344 69.283-77.6-40.473Zm4.6-.6 89.237 24.831-118.53 44.327Zm103.254-46.414 37.809 33.143-43.023 33.462Zm102.6-70.976 43.588-8.346-95.528 99.551Zm51.33-19.316-.3-49.273 40.209-24.635Zm3.535-56.312 48.806-82.248-8.976 57.845Zm62.239-177.616L955.073 573l-12.9 17.866Zm-29.641-151.5 11.154 10.492 11.155 81Zm-56.53-92.392 10.495-5.279 30.334 68.949Zm-73.417-48.261 18.42-26.442 45.081 67.054Zm-2.86-2.891-48.02-66.4 66.465 39.923Zm-108.157-69.521-.3-28.867 46.256 23.963Zm-4.008-.777-105.72-43.558 105.416 13.917ZM465.645 98.516l16.834-14.481 55.812 13.757Zm-91.919 34.571 32.729-35.352 45.258 4.079Zm-8.455 3.244-49.561 4.531 81.374-38.893Zm-136.292 57.115 5.482-12.3 45.483-22.668Zm-59.7 96.406-3.308-32.167 49.473-47.365Zm-3.438 5.661-41.026 46.64 37.8-78.029Zm-61.123 145.779-26.189 4.886 34.594-78.765Zm-.868 4.232L78.795 546.741 77.2 450.495ZM126 697.508l-29.773-24.572-14.26-92.119Zm41.751 85.141-19.019-6.278-12.723-57.116Zm81.285 78.591-63.187-34.493-10.142-34.19Zm11.525 10.849 27.359 34.974-83.62-65.691Zm10.239 6.591 86.987 56.277-56.923-17.844Zm159.588 50.127 67.6 35.469-117.522-23.224Zm81.126-13.484 75.677 39.468-74.129 11.787Zm200.875-1.839-30.723 26.578-69.128 10.763Zm56.784-39.836 2.559 16.582-39.715 12.317ZM872.218 767l-40.85 72.762-51.974 23.971Zm11.388-12.127 27.355-50.658-29.238 69.49Zm57.811-156.126 10.326-14.3-16.6 54.736Zm9.937-107.962v-.051l-.005-.043v-.025l-.146-1.061 1.028-13.561 1.048 35.115Zm-2.746-19.968-10.335-75.052 12.8 42.582Zm-30.739-117.039-18.859-42.856 26.39 49.937Zm-56.864-88.509-37.662-56.006 48.045 50.783ZM735.191 144.18l2.518-1.825 28.954 20.729Zm-3.8-2.187-19.577-10.143 21.757 8.563ZM566.13 99.2l36.686-7.56 55.206 19.691Zm-11.968-1.618-49.955-12.311 83.762 5.346Zm-94.635.919-38.967-3.51 54.52-9.867Zm-137.5 34.907 22.293-16.754 35.94-11.079Zm-18.3 8.75-19.336 9.642 29.729-17.447ZM222.6 197.933l-22.939 21.961 26.229-29.341ZM115.153 352.92l-10.2 3.788 39.624-64.534Zm-13.288 9.2 11.007-4.088L85.041 421.4ZM74.46 526.554l.583 35.27L73 568.237Zm1.914 44.282 10.036 64.83-13.834-52.9Zm52.353 134.108 12.888 57.856-41.134-81.17Zm41.351 82.685 8.948 30.163-26.641-36Zm199.833 155.32 3.732 5.967-39.1-17.055Zm10.039 8.508-4.59-7.337 85.058 16.809Zm208.355 7.208-8.943 10.151-46.694-1.3Zm6.2-.983 55.659-8.666-63.932 18.056ZM723.112 909.5l32.642-10.123-57.56 31.679Zm52.287-21.72-2.563-16.61 47.7-22ZM878.713 763.6l-2.232 22.323-31.37 37.528Zm51.646-95.175 8.061-3.894-36.892 72.418Zm10.734-9.628-9.047 4.37 18.188-59.97Z"/>
    <path fill="none" stroke="#f9f9fa" stroke-linecap="round" stroke-miterlimit="10" stroke-width="6" d="M116.357 728.467c51.475 39.42 209.8 68.076 396.9 68.076 187.036 0 345.085-28.617 396.959-67.945"/>
    <path fill="url(#c)" d="M806.6 93.558c-23.947 27.884-35.1 90.639-10.818 154.256s61.5 49.8 84.7 114.673c30.623 85.6 16.369 200.589 16.369 200.589s36.814 106.609 62.468-6.633C1016.1 343.74 806.6 145.937 806.6 93.558Z"/>
    <path fill="url(#d)" d="M846.993 805.636a246.888 246.888 0 0 1-30.123 18.183 704 704 0 0 0 38.3-62.961c9.46-10.47 18.126-20.648 25.188-31.653 3.437-5.407 7.313-12.079 11.416-19.819 24.921-44.9 52.4-117.563 53.179-192.2v-.18c.018-1.837.029-3.675.014-5.515a257.6 257.6 0 0 0-5.712-55.748c.2 1.431.376 2.861.556 4.291-.221-1.1-.407-2.212-.644-3.314.366 2.034.66 4 .976 5.983 5.094 43.217 1.466 85.372-16.682 116.45-.286.454-.58.879-.869 1.323 9.41-47.234 12.558-99.387 2.088-151.6 0 0-4.187-25.383-35.376-102.441-17.952-44.353-49.833-80.716-78-107.207-24.69-30.546-47.114-51.045-59.475-64.06-25.829-27.197-36.65-47.577-41.094-60.875-3.853-1.932-53.135-49.807-57.05-51.631-21.511 33.353-89.162 137.675-56.985 235.147 14.584 44.172 51.467 90.017 90.067 115.736 1.695 1.936 22.969 25.042 33.086 77.157 10.453 53.848 4.958 95.862-16.543 157.989-25.286 54.505-90.067 108.388-150.724 113.9-129.672 11.782-177.145-65.107-177.145-65.107 46.336 18.525 97.568 14.65 128.724-4.556 31.4-19.425 50.394-33.827 65.81-28.148 15.2 5.653 27.3-10.756 16.442-27.767a78.5 78.5 0 0 0-79.4-34.573c-31.433 5.109-60.226 30.009-101.412 5.894a85.528 85.528 0 0 1-7.729-5.062c-2.715-1.785 8.826 2.717 6.133.688-8.015-4.354-22.2-13.842-25.88-17.217-.613-.562 6.219 2.179 5.606 1.616-38.51-31.712-33.7-53.134-32.49-66.57.969-10.749 7.964-24.523 19.751-30.11 5.693 3.107 9.24 5.479 9.24 5.479s-2.428-4.961-3.741-7.576c.46-.2.9-.147 1.358-.342 4.664 2.251 14.977 8.1 20.407 11.667 7.072 4.988 9.326 9.436 9.326 9.436s1.862-1.025.485-5.375c-.5-1.784-2.647-7.453-9.652-13.174l.438.049a81.2 81.2 0 0 1 11.867 8.241c1.975-7.181 5.527-14.679 4.746-28.092-.477-9.431-.257-11.873-1.919-15.515-1.488-3.128.834-4.348 3.418-1.1a32.826 32.826 0 0 0-2.208-7.4l.022-.244c3.225-11.236 68.248-40.461 72.981-43.877a67.355 67.355 0 0 0 19.132-20.8c3.617-5.763 6.337-13.848 7-26.112.355-8.844-3.759-14.734-69.507-21.618-17.981-1.771-28.531-14.8-34.526-26.823-1.094-2.59-2.209-4.937-3.325-7.282a58 58 0 0 1-2.558-8.431c10.749-30.873 28.81-56.977 55.367-76.7 1.447-1.318-5.782.338-4.336-.98 1.687-1.538 12.706-5.977 14.787-6.977 2.542-1.2-10.882-6.9-22.732-5.512-12.069 1.36-14.632 2.8-21.073 5.531 2.673-2.661 11.173-6.149 9.18-6.126-13.011 1.995-29.179 9.558-43 18.124a10.731 10.731 0 0 1 .827-4.35c-6.441 2.732-22.26 13.788-26.865 23.142a44.329 44.329 0 0 0 .266-5.4 84.483 84.483 0 0 0-13.193 13.819l-.241.219c-37.358-15.05-70.233-16.024-98.053-9.276-6.086-6.112-9.059-1.644-22.907-32.069-.941-1.832.722 1.809 0 0-2.278-5.9 1.389 7.872 0 0-23.284 18.372-53.92 39.193-68.626 53.89-.182.586 17.156-4.9 0 0-6.008 1.716-5.6 5.281-6.513 37.5-.22 2.443-.025 5.179-.223 7.378-11.748 14.968-19.749 27.643-22.775 34.211-15.193 26.18-31.926 66.992-48.146 131.551a334.364 334.364 0 0 1 25.784-50.407c-13.488 34.267-26.527 88.078-29.134 170.945a483.614 483.614 0 0 1 12.533-50.66 473.038 473.038 0 0 0 34.74 201.061c9.329 22.821 24.76 57.455 51.029 95.4 82.533 86.839 198.945 140.9 327.852 140.9 134.581.008 255.425-58.871 338.465-152.368Z"/>
    <path fill="url(#e)" d="M846.993 805.636a246.888 246.888 0 0 1-30.123 18.183 704 704 0 0 0 38.3-62.961c9.46-10.47 18.126-20.648 25.188-31.653 3.437-5.407 7.313-12.079 11.416-19.819 24.921-44.9 52.4-117.563 53.179-192.2v-.18c.018-1.837.029-3.675.014-5.515a257.6 257.6 0 0 0-5.712-55.748c.2 1.431.376 2.861.556 4.291-.221-1.1-.407-2.212-.644-3.314.366 2.034.66 4 .976 5.983 5.094 43.217 1.466 85.372-16.682 116.45-.286.454-.58.879-.869 1.323 9.41-47.234 12.558-99.387 2.088-151.6 0 0-4.187-25.383-35.376-102.441-17.952-44.353-49.833-80.716-78-107.207-24.69-30.546-47.114-51.045-59.475-64.06-25.829-27.197-36.65-47.577-41.094-60.875-3.853-1.932-53.135-49.807-57.05-51.631-21.511 33.353-89.162 137.675-56.985 235.147 14.584 44.172 51.467 90.017 90.067 115.736 1.695 1.936 22.969 25.042 33.086 77.157 10.453 53.848 4.958 95.862-16.543 157.989-25.286 54.505-90.067 108.388-150.724 113.9-129.672 11.782-177.145-65.107-177.145-65.107 46.336 18.525 97.568 14.65 128.724-4.556 31.4-19.425 50.394-33.827 65.81-28.148 15.2 5.653 27.3-10.756 16.442-27.767a78.5 78.5 0 0 0-79.4-34.573c-31.433 5.109-60.226 30.009-101.412 5.894a85.528 85.528 0 0 1-7.729-5.062c-2.715-1.785 8.826 2.717 6.133.688-8.015-4.354-22.2-13.842-25.88-17.217-.613-.562 6.219 2.179 5.606 1.616-38.51-31.712-33.7-53.134-32.49-66.57.969-10.749 7.964-24.523 19.751-30.11 5.693 3.107 9.24 5.479 9.24 5.479s-2.428-4.961-3.741-7.576c.46-.2.9-.147 1.358-.342 4.664 2.251 14.977 8.1 20.407 11.667 7.072 4.988 9.326 9.436 9.326 9.436s1.862-1.025.485-5.375c-.5-1.784-2.647-7.453-9.652-13.174l.438.049a81.2 81.2 0 0 1 11.867 8.241c1.975-7.181 5.527-14.679 4.746-28.092-.477-9.431-.257-11.873-1.919-15.515-1.488-3.128.834-4.348 3.418-1.1a32.826 32.826 0 0 0-2.208-7.4l.022-.244c3.225-11.236 68.248-40.461 72.981-43.877a67.355 67.355 0 0 0 19.132-20.8c3.617-5.763 6.337-13.848 7-26.112.355-8.844-3.759-14.734-69.507-21.618-17.981-1.771-28.531-14.8-34.526-26.823-1.094-2.59-2.209-4.937-3.325-7.282a58 58 0 0 1-2.558-8.431c10.749-30.873 28.81-56.977 55.367-76.7 1.447-1.318-5.782.338-4.336-.98 1.687-1.538 12.706-5.977 14.787-6.977 2.542-1.2-10.882-6.9-22.732-5.512-12.069 1.36-14.632 2.8-21.073 5.531 2.673-2.661 11.173-6.149 9.18-6.126-13.011 1.995-29.179 9.558-43 18.124a10.731 10.731 0 0 1 .827-4.35c-6.441 2.732-22.26 13.788-26.865 23.142a44.329 44.329 0 0 0 .266-5.4 84.483 84.483 0 0 0-13.193 13.819l-.241.219c-37.358-15.05-70.233-16.024-98.053-9.276-6.086-6.112-9.059-1.644-22.907-32.069-.941-1.832.722 1.809 0 0-2.278-5.9 1.389 7.872 0 0-23.284 18.372-53.92 39.193-68.626 53.89-.182.586 17.156-4.9 0 0-6.008 1.716-5.6 5.281-6.513 37.5-.22 2.443-.025 5.179-.223 7.378-11.748 14.968-19.749 27.643-22.775 34.211-15.193 26.18-31.926 66.992-48.146 131.551a334.364 334.364 0 0 1 25.784-50.407c-13.488 34.267-26.527 88.078-29.134 170.945a483.614 483.614 0 0 1 12.533-50.66 473.038 473.038 0 0 0 34.74 201.061c9.329 22.821 24.76 57.455 51.029 95.4 82.533 86.839 198.945 140.9 327.852 140.9 134.581.008 255.425-58.871 338.465-152.368Z"/>
    <path fill="url(#f)" d="M747.417 868.708c162.87-18.86 234.969-186.7 142.381-190-83.633-2.673-219.527 198.9-142.381 190Z"/>
    <path fill="url(#g)" d="M901.524 644.424c112.056-65.214 82.839-206.08 82.839-206.08s-43.247 50.239-72.625 130.321c-29.025 79.298-77.583 115.147-10.214 75.759Z"/>
    <path fill="url(#h)" d="M545.792 952.062c156.227 49.851 290.5-73.22 207.733-114.32-75.251-37.066-281.883 90.748-207.733 114.32Z"/>
    <path fill="url(#i)" d="M674.9 23.42c.347-.379.531-.573.531-.573a1.784 1.784 0 0 0-.531.573Zm238.27 680.814c3.8-5.363 8.94-22.535 13.48-30.211 27.578-44.523 27.773-80.023 27.773-80.836 16.659-83.219 15.148-117.2 4.9-180.043-8.251-50.6-44.322-123.092-75.57-158-32.2-35.965-9.514-24.247-40.692-50.518-27.327-30.293-53.823-60.291-68.253-72.355C670.533 45.094 672.888 26.577 674.9 23.42c-.339.371-.837.922-1.472 1.643-1.239-4.923-2.11-9.063-2.11-9.063s-57 57-69 152c-7.834 62.021 15.383 126.676 49 168a381.367 381.367 0 0 0 59 58v-.026c25.4 36.477 39.38 81.489 39.38 129.909 0 121.244-98.341 219.531-219.652 219.531a220.455 220.455 0 0 1-49.136-5.514c-57.236-10.908-90.288-39.781-106.772-59.382-9.447-11.234-13.464-19.423-13.464-19.423 51.283 18.371 107.986 14.528 142.468-4.518 34.749-19.265 55.774-33.546 72.837-27.915 16.82 5.606 30.211-10.667 18.2-27.536-11.771-16.845-42.4-40.97-87.878-34.286-34.789 5.067-66.657 29.76-112.24 5.845a96.313 96.313 0 0 1-8.554-5.02c-3.005-1.771 9.768 2.695 6.787.682-8.87-4.318-24.573-13.728-28.643-17.074-.679-.557 6.883 2.161 6.2 1.6-42.621-31.449-37.3-52.693-35.959-66.018 1.073-10.66 8.814-24.32 21.859-29.86 6.3 3.081 10.226 5.433 10.226 5.433s-2.688-4.92-4.141-7.513c.509-.194.994-.145 1.5-.339 5.162 2.232 16.576 8.029 22.586 11.57 7.827 4.947 10.322 9.358 10.322 9.358s2.061-1.016.536-5.33c-.557-1.769-2.929-7.391-10.682-13.065l.485.049a90.851 90.851 0 0 1 13.134 8.173c2.186-7.121 6.118-14.557 5.253-27.859-.528-9.352-.284-11.775-2.124-15.386-1.647-3.1.924-4.312 3.782-1.088a30.038 30.038 0 0 0-2.444-7.343l.025-.242c3.57-11.143 75.535-40.125 80.773-43.513a70.31 70.31 0 0 0 21.175-20.63c4-5.715 7.014-13.733 7.748-25.895.246-5.48-1.441-9.817-20.5-13.965-11.439-2.49-29.136-4.913-56.433-7.474-19.9-1.756-31.577-14.676-38.212-26.6-1.211-2.569-2.445-4.9-3.68-7.222a53.108 53.108 0 0 1-2.831-8.36 158.47 158.47 0 0 1 61.279-76.063c1.6-1.308-6.4.335-4.8-.972 1.868-1.525 14.063-5.927 16.367-6.919 2.813-1.186-12.044-6.84-25.159-5.466-13.357 1.349-16.194 2.776-23.323 5.486 2.959-2.639 12.366-6.1 10.161-6.075-14.4 1.978-32.3 9.479-47.6 17.973a9.676 9.676 0 0 1 .924-4.312c-7.129 2.709-24.637 13.674-29.734 22.95a39.488 39.488 0 0 0 .306-5.356 88.678 88.678 0 0 0-14.6 13.7l-.267.218c-41.347-14.925-77.732-15.891-108.522-9.2-6.736-6.061-17.566-15.226-32.892-45.4-1.041-1.817-1.6 3.755-2.4 1.961-5.955-13.813-9.553-36.444-8.962-52.046 0 0-12.318 5.614-22.513 29.06-1.893 4.215-3.107 6.54-4.32 8.865-.558.678 1.265-7.7.974-7.244-1.772 3-6.356 7.192-8.371 12.618-1.384 4.021-3.325 6.273-4.564 11.288l-.291.46c-.1-1.478.367-6.081.027-5.137a236.1 236.1 0 0 0-12.308 29.841c-5.489 18.046-11.879 42.61-12.892 74.565-.244 2.423-.027 5.136-.247 7.317-13 14.844-21.858 27.413-25.207 33.928-16.815 25.968-35.337 66.442-53.29 130.465a319.143 319.143 0 0 1 28.537-49.989C53.634 418.253 39.2 471.618 36.318 553.8a438.522 438.522 0 0 1 13.872-50.24c-2.578 54.8 3.805 122.74 38.449 199.393 20.57 45.087 67.921 136.649 183.62 208.1l-.01.007s39.36 29.3 107.017 51.259c5 1.814 10.065 3.6 15.234 5.333-1.622-.655-3.191-1.344-4.715-2.052a484.883 484.883 0 0 0 138.8 20.4c175.18.149 226.846-70.2 226.846-70.2s-.182.137-.513.377q3.708-3.491 7.143-7.257c-27.639 26.1-90.715 27.832-114.3 25.949 40.223-11.813 66.691-21.806 118.175-41.519q9.032-3.355 18.478-7.645c.681-.3 1.368-.625 2.052-.936 1.249-.582 2.486-1.132 3.747-1.744a349.205 349.205 0 0 0 70.262-43.987c51.7-41.3 62.949-81.557 68.829-108.1-.82 2.544-3.375 8.475-5.17 12.316-13.315 28.482-42.841 45.959-74.908 60.948a688.993 688.993 0 0 0 42.384-62.438c10.475-10.374 13.741-26.616 21.556-37.53Z"/>
    <path fill="url(#j)" d="M850.239 802.982c21.08-23.241 40.01-49.824 54.349-79.968 36.9-77.582 93.952-206.58 49.018-341.306C918.092 275.225 869.333 217 807.424 160.122 706.881 67.756 678.8 26.521 678.8 2c0 0-116.089 129.409-65.742 264.381S766.52 396.405 834.737 537.255C915.011 703 769.788 883.869 649.693 934.493c7.353-1.633 266.97-60.383 280.614-208.882-.307 2.731-6.159 43.803-80.068 77.371Z"/>
    <path fill="url(#k)" d="M513.91 321.373c.393-8.77-4.156-14.66-76.682-21.463-29.839-2.755-41.265-30.334-44.748-41.941-10.61 27.565-14.991 56.49-12.636 91.477 1.61 22.92 17.009 47.521 24.37 61.965 0 0 1.636-2.126 2.391-2.912 13.861-14.431 71.936-36.419 77.392-39.541 6.014-3.799 28.903-20.523 29.913-47.585Z"/>
    <path fill="url(#l)" d="M513.91 321.373c.393-8.77-4.156-14.66-76.682-21.463-29.839-2.755-41.265-30.334-44.748-41.941-10.61 27.565-14.991 56.49-12.636 91.477 1.61 22.92 17.009 47.521 24.37 61.965 0 0 1.636-2.126 2.391-2.912 13.861-14.431 71.936-36.419 77.392-39.541 6.014-3.799 28.903-20.523 29.913-47.585Z"/>
    <path fill="url(#m)" d="M194.632 158.471c-1.041-1.818-1.6 3.754-2.4 1.961-5.955-13.813-9.578-36.2-8.72-52.022 0 0-12.318 5.614-22.513 29.06-1.893 4.215-3.107 6.54-4.32 8.865-.558.678 1.265-7.7.974-7.244-1.771 3-6.355 7.192-8.346 12.375-1.651 4.239-3.349 6.515-4.613 11.772-.389 1.429.392-6.323.052-5.379-23.711 45.825-28.237 115.114-25.738 112.184 50.478-53.9 108.325-66.683 108.325-66.683-6.155-4.534-19.528-17.625-32.7-44.889Z"/>
    <path fill="url(#n)" d="M386.162 722.1c-69.724-29.769-148.992-71.755-146-167.138C244.235 429.347 357.3 454.175 357.3 454.175c-4.267 1.039-15.675 9.162-19.718 17.82-4.273 10.827-12.069 35.276 11.551 60.9 37.089 40.192-76.2 95.356 98.663 199.567 4.41 2.4-40.991-1.43-61.639-10.358Z"/>
    <path fill="url(#o)" d="M361.391 659.5c49.442 17.207 107.04 14.189 141.523-4.858 23.085-12.851 52.7-33.434 70.922-28.353-15.777-6.236-27.726-9.15-42.1-9.862-2.448 0-5.382-.052-8.048-.32a136.228 136.228 0 0 0-15.757.863c-8.9.818-18.766 6.433-27.735 5.532-.485-.049 8.7-3.774 7.953-3.605-4.752.991-9.915 1.205-15.37 1.881-3.467.386-6.449.82-9.891.963-102.982 8.733-190.017-55.813-190.017-55.813-7.408 24.95 33.166 74.3 88.521 93.572Z"/>
    <path fill="url(#p)" d="M850.055 803.646c104.164-102.269 156.858-226.585 134.584-366.018 0 0 8.9 71.5-24.848 144.628 16.213-71.393 18.1-160.114-24.975-251.988-57.493-122.632-152.048-187.159-188.147-214.079C691.974 75.4 669.3 33.87 668.892 25.3c-16.339 33.477-65.766 148.2-5.31 247 56.64 92.564 145.865 120.039 208.328 204.947 115.074 156.42-21.855 326.399-21.855 326.399Z"/>
    <path fill="url(#q)" d="M835.132 537.551c-36.4-75.2-81.837-108-124.814-143.551 5 7 6.232 9.473 9 14 37.827 40.316 93.607 138.656 53.11 262.107-76.228 232.375-381.144 122.95-413.11 92.212 12.932 134.489 238.036 198.845 384.6 111.63 83.4-78.949 150.868-213.161 91.214-336.398Z"/>
    <path fill="url(#r)" d="m850.438 688.38.941-4.853c.318-1.746.752-3.6 1.024-5.605.606-4 1.381-8.467 1.868-13.429a237.936 237.936 0 0 0 1.478-34.99 223.032 223.032 0 0 0-5.827-43.81 232.044 232.044 0 0 0-17.422-48.752 336.9 336.9 0 0 0-29.593-49.806c-5.8-8.242-12.31-16.176-19.092-24.059-6.877-7.808-14.231-15.386-21.916-22.794-7.746-7.347-15.838-14.5-24.144-21.541s-16.845-13.95-25.358-20.984-17.047-14.138-25.3-21.609-16.227-15.277-23.726-23.509a245.976 245.976 0 0 1-20.751-26.026l-2.351-3.413c-.792-1.131-1.568-2.271-2.279-3.453l-4.373-7c-1.44-2.339-2.718-4.769-4.08-7.142l-2.01-3.575c-.657-1.2-1.24-2.431-1.862-3.643L622 291.1c-1.143-2.459-2.225-4.939-3.336-7.4-2.307-4.883-4.125-9.939-6.129-14.883l-.736-1.859-.64-1.9-1.266-3.786c-.831-2.524-1.708-5.024-2.491-7.543l-2-7.632-.995-3.8c-.358-1.257-.528-2.553-.8-3.824a212.571 212.571 0 0 1-3.8-59.827A261.122 261.122 0 0 1 610 125.2a310.659 310.659 0 0 1 16.986-44.062 372 372 0 0 1 18.166-33.806 366.158 366.158 0 0 1 24.685-35.972c2.556-3.267 5.114-6.433 7.656-9.355A.951.951 0 0 1 678.8 2a.946.946 0 0 1 .17 1.29c-2.425 2.812-4.981 5.991-7.554 9.3A375.787 375.787 0 0 0 628.4 83.345a308.148 308.148 0 0 0-16.536 43.944 256.434 256.434 0 0 0-9.661 52.953 213.065 213.065 0 0 0 4.268 58.875c.127.626.239 1.257.379 1.881l.493 1.858.989 3.727c.682 2.483 1.275 5 2.034 7.479l2.495 7.4 1.253 3.716c.407 1.244.952 2.446 1.422 3.674l2.936 7.354.736 1.845.817 1.813 1.64 3.632 1.643 3.641c.552 1.213 1.076 2.442 1.7 3.622l3.633 7.164a248.018 248.018 0 0 0 37.41 53.145c7.427 8.06 15.325 15.719 23.5 23.066s16.657 14.361 25.129 21.328 17 13.823 25.316 20.839 16.438 14.157 24.229 21.508c7.73 7.416 15.15 15.005 22.086 22.845 6.855 7.9 13.43 15.88 19.3 24.155a340.258 340.258 0 0 1 29.978 50.05l.789 1.548.724 1.578 1.437 3.142c.941 2.094 1.933 4.148 2.814 6.232l2.513 6.255 1.242 3.092c.391 1.035.734 2.083 1.1 3.117l2.148 6.171c.373 1.014.682 2.044.979 3.073l.908 3.067c.592 2.039 1.226 4.047 1.767 6.061l1.479 6.02a227.372 227.372 0 0 1 6.136 44.563 242.006 242.006 0 0 1-1.365 35.77c-1.056 10.174-2.693 18.441-3.917 24.655a283.86 283.86 0 0 1-9.883 35.225 300.4 300.4 0 0 1-12.738 30.909c-4.586 9.513-9.213 18.33-13.967 26.258l-1.73 2.965-1.775 2.86-3.452 5.539c-2.344 3.555-4.565 6.968-6.771 10.151-4.418 6.363-8.568 11.946-12.3 16.734l-5.268 6.593-4.568 5.375-1.947 2.263-1.759 1.925q-1.643 1.787-2.789 2.984c-1.524 1.591-2.366 2.373-2.47 2.282s.574-1.072 1.944-2.878c1.349-1.824 3.493-4.387 6.079-7.843 5.3-6.8 12.8-16.839 21.331-29.834 2.081-3.282 4.3-6.7 6.511-10.335 2.172-3.657 4.5-7.426 6.7-11.457 4.553-7.977 9.037-16.744 13.383-26.173 1.056-2.371 2.2-4.74 3.226-7.2l3.121-7.458c1.97-5.083 4.011-10.275 5.8-15.674a292.746 292.746 0 0 0 9.417-34.034Z"/>
    <path fill="url(#a)" d="M775.678 651.742c.525-2.058 1.324-4.8 2.025-8.215.723-3.409 1.74-7.406 2.486-12 .4-2.293.869-4.713 1.287-7.264l1.115-8.035.294-2.115.217-2.164.436-4.446c.139-1.508.318-3.037.432-4.595l.275-4.747a261.509 261.509 0 0 0-.931-41.929l-.269-2.785-.366-2.787-.751-5.61c-.23-1.881-.615-3.744-.916-5.627-.334-1.877-.614-3.77-1-5.647l-1.17-5.638c-.2-.94-.38-1.885-.6-2.823l-.684-2.805-1.369-5.615-1.555-5.563a271.656 271.656 0 0 0-15.87-42.078 267.354 267.354 0 0 0-19.655-34.4c-3.273-4.919-6.585-9.3-9.61-13.256-3.1-3.9-5.95-7.337-8.536-10.2l-1.863-2.062-.454-.5a1.61 1.61 0 0 1-.3-.4l-.176-.292-.644-1.076-2.227-3.748c-1.317-2.179-2.34-3.714-2.924-4.591-.8-1.192-1.6-2.354-2.365-3.449a.964.964 0 0 1 .3-1.269.932.932 0 0 1 1.3.138c.768 1.065 1.595 2.238 2.427 3.463.653.963 1.751 2.589 3.138 4.852l2.31 3.817.641 1.048a.5.5 0 0 0 .089.113l.224.244.456.5 1.924 2.1a221.734 221.734 0 0 1 18.546 23.673 269.509 269.509 0 0 1 20.016 34.533 273.9 273.9 0 0 1 16.254 42.208l1.6 5.588 1.422 5.641.71 2.819.618 2.839 1.222 5.669c.391 1.889.693 3.792 1.043 5.681.317 1.894.721 3.769.964 5.662l.8 5.648.389 2.807.292 2.805a264.108 264.108 0 0 1 1.259 42.321 258.544 258.544 0 0 1-3.874 33.841c-.737 4.681-1.735 8.764-2.47 12.256-.706 3.5-1.511 6.328-2.062 8.471l-1.664 6.3-1.859 5.987-1.8 5.717q-.945 2.77-1.9 5.375c-2.542 6.942-5.144 12.947-7.488 17.841-4.71 9.788-8.325 15.135-8.773 14.889-.492-.262 2.331-6.262 6.348-16.336 2-5.041 4.285-11.106 6.575-17.983.569-1.72 1.15-3.487 1.714-5.305l1.658-5.6 1.736-5.819Z"/>
    <path fill="url(#s)" d="M753.208 370.436c-2.346-1.893-5.545-4.369-9.346-7.543l-6.236-5.144c-2.238-1.857-4.578-3.923-7.092-6.074a403.8 403.8 0 0 1-34.4-33.243 293.345 293.345 0 0 1-35.565-47.974c-1.311-2.31-2.658-4.617-3.957-6.963l-3.62-7.224-.909-1.815c-.286-.613-.546-1.24-.82-1.86l-1.627-3.737-1.636-3.747c-.513-1.263-.967-2.552-1.453-3.829l-1.438-3.844c-.488-1.28-.968-2.563-1.356-3.879l-2.485-7.85-2.1-7.968c-.373-1.322-.66-2.664-.935-4.009l-.852-4.025a224.951 224.951 0 0 1-4.1-32.305 249.481 249.481 0 0 1 .42-31.434 280.1 280.1 0 0 1 3.724-29.265c1.689-9.273 3.706-18.017 5.856-26.112a361.979 361.979 0 0 1 13.283-39.912c4.068-10.167 7.256-16.973 8.513-19.686.861-1.846 1.724-3.65 2.561-5.35a.956.956 0 0 1 1.255-.349.94.94 0 0 1 .505 1.2c-.794 1.653-1.646 3.465-2.507 5.339-1.349 2.949-4.544 9.907-8.561 20.149A362.639 362.639 0 0 0 645.38 91.9a298.354 298.354 0 0 0-9.038 54.862 252.1 252.1 0 0 0-.18 30.955 222.011 222.011 0 0 0 4.274 31.683l.857 3.941.428 1.971.523 1.949 2.108 7.79 2.475 7.672c.385 1.287.88 2.534 1.357 3.786l1.428 3.754c.486 1.246.926 2.509 1.448 3.736l1.617 3.657 1.611 3.646c.273.6.524 1.219.815 1.813l.9 1.77 3.578 7.046 3.909 6.788a290.41 290.41 0 0 0 35.21 47.026 402.744 402.744 0 0 0 34.173 32.775c2.511 2.134 4.854 4.177 7.09 6.035l6.264 5.135c3.824 3.175 7.068 5.683 9.469 7.618l26.814 21.21c8.079 6.44 15.148 12.246 20.915 17.2l7.67 6.718c2.2 2.013 4.05 3.777 5.545 5.219 2.985 2.892 4.512 4.557 4.328 4.765s-2.1-1.138-5.468-3.729l-14.229-11.116-21.461-16.5c-8.142-6.24-17.175-13.125-26.602-20.639Z"/>
    <path fill="url(#b)" d="M962.046 403.463c-.5-1.867-1.026-4.069-1.726-6.545-.725-2.469-1.492-5.249-2.421-8.28l-1.513-4.734c-.517-1.649-1.07-3.357-1.705-5.1l-3.963-11.237-2.174-6.141-2.5-6.4-2.617-6.707c-.915-2.277-1.748-4.643-2.8-6.977l-6.3-14.628c-2.289-5-4.764-10.1-7.247-15.382l-.94-1.983-1.018-1.961-2.057-3.96-4.19-8.063c-.686-1.37-1.453-2.707-2.222-4.051l-2.307-4.061-4.684-8.242-5.077-8.209-2.572-4.153c-.434-.692-.853-1.4-1.3-2.083l-1.376-2.046c-3.7-5.447-7.305-11.076-11.365-16.472-1.995-2.722-3.957-5.49-6.006-8.213l-6.325-8.084c-1.064-1.347-2.1-2.719-3.194-4.053l-3.324-3.968-6.689-7.955-6.945-7.785c-1.167-1.292-2.3-2.615-3.5-3.885l-3.59-3.8c-2.4-2.527-4.77-5.092-7.2-7.589l-7.359-7.416c-2.431-2.493-4.95-4.89-7.448-7.3s-4.975-4.831-7.5-7.191l-15.092-13.98c-10-9.2-19.769-18.32-29.116-27.287-18.7-17.928-35.792-35.19-50.028-50.993C710.4 60.776 699.1 46.356 691.8 34.591a104.876 104.876 0 0 1-8.026-15.281 54.814 54.814 0 0 1-2.995-9.2 36.256 36.256 0 0 1-.969-7.279A1 1 0 0 0 678.8 2a.9.9 0 0 0-.946.886 37.714 37.714 0 0 0 .974 7.666 57.41 57.41 0 0 0 3.22 9.944 108.052 108.052 0 0 0 8.333 15.827A232.761 232.761 0 0 0 704.4 56.144c5.573 7.129 12 14.724 19.12 22.677 14.242 15.909 31.271 33.227 49.859 51.193 9.29 8.989 18.989 18.121 28.923 27.332L817.23 171.3l7.393 7.168c2.472 2.392 4.944 4.793 7.342 7.271l7.263 7.378 7.09 7.547 3.536 3.778c1.164 1.271 2.29 2.576 3.435 3.862l6.834 7.727 6.572 7.894 3.268 3.935c1.065 1.327 2.091 2.683 3.135 4.019l6.214 8.011c2.01 2.7 3.938 5.439 5.9 8.136 3.987 5.345 7.523 10.918 11.157 16.311 1.852 2.675 3.455 5.483 5.155 8.2l4.987 8.125 4.6 8.161c1.494 2.707 3.072 5.334 4.453 8.03l4.112 7.989 2.02 3.924c.676 1.3 1.338 2.589 1.933 3.9a543.106 543.106 0 0 1 23.284 55.869l3.922 11.225.9 2.581.793 2.5 1.5 4.718c.932 3.021 1.684 5.8 2.411 8.281.706 2.483 1.233 4.7 1.738 6.6l.733 2.834.653 2.827 1.287 5.578c.729 3.708 1.567 7.321 2.159 10.9l.951 5.293.8 5.19c.568 3.412.932 6.764 1.375 10.01 1.6 13.01 2.236 24.605 2.545 34.242.516 19.286-.2 30.754.45 30.8.253.019.709-2.93 1.264-8.34.473-5.413 1.027-13.293 1.087-23.122a307.721 307.721 0 0 0-9.435-77.189Z"/>
    <path fill="url(#t)" d="M613.6 724.777c1.421-.515 3-1.315 4.846-2.12l6.145-2.778 7.212-3.678 1.981-1.009 2-1.142 4.186-2.4c2.914-1.581 5.823-3.539 8.933-5.5 3.15-1.907 6.221-4.243 9.515-6.531 1.662-1.126 3.26-2.4 4.9-3.687l5.009-3.915 4.985-4.276c1.685-1.451 3.415-2.9 5.044-4.508l5.046-4.784c1.686-1.632 3.285-3.393 4.962-5.113l2.509-2.616c.841-.876 1.612-1.826 2.427-2.742l4.883-5.607a243.278 243.278 0 0 0 18.017-25.154 239.966 239.966 0 0 0 14.821-28.689 235.768 235.768 0 0 0 10.5-31.1 233.232 233.232 0 0 0 5.676-32.059c.408-5.347.936-10.644.968-15.9.229-5.252.107-10.452-.031-15.567a237 237 0 0 0-2.934-29.445c-.694-4.681-1.68-9.194-2.584-13.586l-1.553-6.444c-.484-2.122-1.14-4.162-1.686-6.193l-.847-3.011c-.285-.993-.623-1.96-.927-2.927l-1.835-5.674-1.962-5.368-.952-2.592-1.022-2.493-1.965-4.8c-.666-1.543-1.366-3.019-2.016-4.463-.667-1.436-1.27-2.848-1.931-4.174l-1.93-3.829a210.187 210.187 0 0 0-10.726-18.7l-3.293-4.974a1 1 0 0 1 .146-1.114l.435-.159a1.032 1.032 0 0 1-.235.048 1.085 1.085 0 0 1-.249 0l.451-.165a.916.916 0 0 1 1.064.281l3.361 5a211.37 211.37 0 0 1 11.2 19.336 218.3 218.3 0 0 1 15.714 39.837c1.242 4.068 2.221 8.357 3.31 12.751l1.4 6.742c.251 1.136.462 2.288.647 3.452l.593 3.506a247.212 247.212 0 0 1 3.052 29.656q.088 3.865.177 7.786c.049 1.307.023 2.619-.015 3.936s-.059 2.637-.089 3.962c0 5.3-.554 10.645-.914 16.042a220.44 220.44 0 0 1-16.08 63.8 221.782 221.782 0 0 1-32.917 54.594l-4.908 5.705c-.818.935-1.6 1.891-2.438 2.795l-2.527 2.662c-1.686 1.755-3.31 3.534-4.995 5.213l-5.09 4.874c-.846.793-1.652 1.619-2.515 2.369l-2.571 2.237-5.03 4.373-5.067 4c-1.667 1.3-3.267 2.631-4.952 3.781l-4.88 3.484c-.8.563-1.577 1.144-2.374 1.676l-2.39 1.539c-3.165 2-6.109 4.036-9.077 5.659l-4.267 2.462-2.037 1.175c-.674.374-1.357.706-2.017 1.051l-7.386 3.795c-2.3 1.089-4.432 2.022-6.324 2.889-1.906.835-3.55 1.67-5.036 2.21A205.76 205.76 0 0 1 581.87 739.1c-2.577.562-5.074 1.131-7.5 1.628l-7.089 1.164-3.352.541-3.24.362-6.061.64c-1.919.239-3.758.287-5.486.376l-4.868.216c-3.026.183-5.625.049-7.733 0-4.219-.133-6.5-.339-6.5-.616 0-.258 2.359-.572 6.639-.917 2.14-.177 4.763-.3 7.8-.7l4.872-.526 2.663-.276c.911-.1 1.84-.272 2.8-.409 3.813-.62 8.028-1.075 12.489-2.049l6.944-1.36 7.312-1.778a231.948 231.948 0 0 0 32.04-10.619Z"/>
    <path fill="url(#u)" d="M388.256 264.7c.97-2.739 2.181-5.972 3.6-9.69 1.574-3.657 3.21-7.863 5.467-12.36a162.209 162.209 0 0 1 19.1-30.7 152.2 152.2 0 0 1 34.877-32.431c1.844-1.249 3.77-2.43 5.74-3.6l1.493-.861.538-.307.194-.1.322-.171.095-.045c.122-.034 0-.049-.057-.068l-.1-.027-.416-.093q-3.4-.721-6.931-1.229a125.416 125.416 0 0 0-29.7-.78 112.589 112.589 0 0 0-26.446 5.733 101.37 101.37 0 0 0-13.722 5.986c-4.563 2.423-9.255 5.058-13.985 7.774-4.726 2.739-9.529 5.589-14.281 8.675-1.2.758-2.382 1.545-3.559 2.35-1.191.788-2.361 1.609-3.522 2.448a74.862 74.862 0 0 0-6.733 5.316c-.5.483-1.042.959-1.484 1.458l-.347.371-.393.472c-.094.147-.25.223-.3.421-.045.007-.137-.036-.167-.018l-.095.05-.19.1-.69.372a3.523 3.523 0 0 1-.636.26c-.275.07-.562.328-.863.115l-1.515-.559-2.09-.74c-2.8-.982-5.65-1.882-8.52-2.773q-8.626-2.634-17.614-4.665l-.793-.183-.851-.2a190.2 190.2 0 0 0-29.576-4.161 131.879 131.879 0 0 0-30.216 2.234c-5.034.869-10.041 1.976-15.016 3.222-4.98 1.228-9.911 2.675-14.8 4.234a238.453 238.453 0 0 0-28.573 11.232 209.521 209.521 0 0 0-50.181 32.579A176.689 176.689 0 0 0 115.424 275c-1.532 1.775-2.885 3.674-4.3 5.506-1.438 1.812-2.707 3.751-4.022 5.632l-3.891 5.629c-1.285 1.866-2.6 3.695-3.748 5.612l-7.013 11.185-6.342 11.093c-1.065 1.8-2.016 3.643-2.965 5.463l-2.83 5.4c-.922 1.787-1.885 3.53-2.744 5.3l-2.538 5.258c-3.429 6.89-6.324 13.631-9.142 19.95-2.646 6.394-5.18 12.388-7.29 18.051-2.229 5.618-4.021 10.9-5.758 15.658-1.593 4.806-3.112 9.095-4.269 12.906l-1.665 5.287-1.321 4.465c-.808 2.682-1.385 4.788-1.789 6.25-.966 3.42-1.838 6.8-2.623 10a.969.969 0 0 1-1.149.614.928.928 0 0 1-.756-1.063c.757-3.155 1.62-6.58 2.6-10.082.435-1.6 1.047-3.838 1.88-6.637l1.364-4.633 1.694-5.442c.592-1.953 1.274-4.023 2.01-6.215s1.484-4.52 2.328-6.949c1.729-4.843 3.57-10.185 5.8-15.87 2.115-5.729 4.679-11.772 7.331-18.216l4.35-9.835c.726-1.692 1.521-3.38 2.347-5.078l2.476-5.172 2.54-5.29 2.767-5.322 2.825-5.433c.482-.911.939-1.841 1.448-2.749l1.548-2.729c2.089-3.646 4.148-7.4 6.368-11.14l7-11.26c.576-.963 1.216-1.89 1.86-2.819l1.925-2.805 3.889-5.667 1.964-2.861 2.106-2.8 2.125-2.812c.723-.93 1.493-1.827 2.241-2.746a180.164 180.164 0 0 1 20.133-20.839 203.279 203.279 0 0 1 23.854-18.066 228.83 228.83 0 0 1 26.749-14.8A239.716 239.716 0 0 1 243.61 200c5.085-.9 10.2-1.616 15.338-2.051 1.284-.114 2.569-.213 3.86-.267 1.286-.083 2.578-.122 3.87-.136 2.582-.043 5.14.08 7.7.13a193.275 193.275 0 0 1 29.992 4.121l.863.2.805.183q9.083 2.015 17.827 4.668c2.907.893 5.793 1.8 8.638 2.784l2.13.746.619.221c.11.033.132.063.184.052a.864.864 0 0 1 .1-.143l.279-.342.409-.441c.541-.608 1.11-1.11 1.667-1.657a78.046 78.046 0 0 1 7.012-5.584c1.19-.862 2.382-1.708 3.589-2.512 1.2-.821 2.4-1.629 3.608-2.4 4.81-3.146 9.641-6.03 14.394-8.806 4.773-2.758 9.43-5.391 14.086-7.886a104.253 104.253 0 0 1 14.185-6.249 116.2 116.2 0 0 1 27.363-6.033 129.172 129.172 0 0 1 30.388.7q3.618.507 7.127 1.233c.346.073 1.771.371 2.785.624 1.063.272 2.167.529 3.134.829l2.931.873 1.453.441.3.1.157.052c.049.008.057.021 0 .039l-.107.048-.855.384-3.375 1.527-.837.38c-.283.127-.568.255-.768.367l-1.332.7-1.328.695-.663.347-.319.168-.179.1-1.431.83c-.958.538-1.881 1.129-2.806 1.7s-1.837 1.155-2.728 1.761a148.244 148.244 0 0 0-33.917 31.52 159.277 159.277 0 0 0-18.709 30.047c-2.216 4.436-3.858 8.6-5.409 12.242-1.42 3.7-2.619 6.94-3.6 9.7a230.6 230.6 0 0 0-8.083 29.976 198.206 198.206 0 0 0-3.695 28.119 128.132 128.132 0 0 0 .918 25.089l.473 2.848c.146.942.3 1.873.541 2.786.438 1.829.8 3.635 1.315 5.371.481 1.742.924 3.455 1.463 5.1.516 1.652 1 3.273 1.553 4.828A275.33 275.33 0 0 0 398.3 398.8c3.091 6.561 4.875 10.075 4.631 10.218-.218.129-2.532-3.268-6.142-9.812a213.184 213.184 0 0 1-13.21-28.973c-1.153-3.187-2.267-6.57-3.3-10.148-.52-1.787-.947-3.646-1.438-5.524-.39-1.909-.732-3.874-1.107-5.867a131.259 131.259 0 0 1-1.087-25.759 190.381 190.381 0 0 1 3.588-28.367 227.323 227.323 0 0 1 8.021-29.868Z"/>
    <path fill="#fff" d="m951.385 659.377 2.853-6.3 3.969-9.2 4.752-11.725 2.518-6.711c.861-2.318 1.8-4.7 2.619-7.189 1.7-4.966 3.557-10.18 5.18-15.684.821-2.748 1.767-5.516 2.526-8.378l2.359-8.686c.849-2.917 1.457-5.924 2.173-8.929l1.047-4.53c.358-1.513.709-3.032.974-4.572l1.74-9.238.43-2.316.343-2.331.687-4.658c1.018-6.193 1.547-12.423 2.238-18.527.44-6.127.966-12.146 1.115-18 .459-11.7.343-22.7-.222-32.317a284.213 284.213 0 0 0-4.085-36.279c-.207-1.152-.431-2.275-.649-3.336a.975.975 0 0 1 .77-1.05.923.923 0 0 1 1.142.633c.234 1.049.478 2.2.7 3.377a287.522 287.522 0 0 1 4.509 36.937c.125 2.421.324 4.923.4 7.5s.16 5.236.243 7.955c.021 5.439.119 11.141-.131 17.017-.091 5.882-.579 11.926-.955 18.08-.641 6.132-1.119 12.389-2.082 18.616l-.645 4.684-.323 2.344-.416 2.329-1.659 9.3c-.251 1.55-.6 3.077-.938 4.6l-1.009 4.56c-.691 3.025-1.276 6.055-2.1 8.99l-2.291 8.746c-.358 1.445-.786 2.858-1.21 4.261l-1.25 4.177-1.229 4.1-.606 2.022-.661 1.981-2.571 7.7a446.991 446.991 0 0 1-16.618 41.7c-11.906 26.192-23.652 43.637-24.6 43.022-.843-.514 9.499-19.391 20.963-44.675ZM815.728 867.058c4.985-2.98 16.853-10.048 31.164-20.3l5.493-3.958 5.634-4.284 2.9-2.2 2.875-2.324 5.868-4.745 5.84-5.028c1.966-1.69 3.95-3.388 5.825-5.185 1.938-1.74 3.734-3.641 5.593-5.483 1.767-1.93 3.595-3.81 5.266-5.822a141.682 141.682 0 0 0 9.532-12.293 148.966 148.966 0 0 0 8-12.744 170.215 170.215 0 0 0 11.314-24.492 159.471 159.471 0 0 0 7.913-29.449c.151-.964.3-1.913.411-2.807a.975.975 0 0 1 1.068-.74.923.923 0 0 1 .875.972c-.1.9-.231 1.877-.377 2.88a161.517 161.517 0 0 1-7.786 30.284 171.547 171.547 0 0 1-11.212 24.911 150.627 150.627 0 0 1-7.975 13 145.349 145.349 0 0 1-9.544 12.573c-1.675 2.062-3.513 3.991-5.29 5.969-1.864 1.9-3.676 3.845-5.626 5.638-1.9 1.858-3.87 3.579-5.822 5.3l-5.811 5.116-5.842 4.831-2.864 2.367-2.887 2.244-5.619 4.365c-1.853 1.4-3.7 2.724-5.481 4.039-14.293 10.462-26.216 17.713-31.386 20.8-20.719 12.393-37.244 18.661-37.673 17.607-.2-.473 3.727-2.718 10.188-6.372s15.452-8.711 25.436-14.67Zm-261.32 116.5 6.732-.274 9.744-.6c7.4-.511 16.5-1.284 26.656-2.518 1.27-.153 2.563-.271 3.861-.459l3.943-.572 8.146-1.181c2.77-.391 5.557-.974 8.4-1.463 2.838-.53 5.731-.995 8.627-1.6l8.747-1.934 4.426-.978c1.475-.346 2.933-.772 4.406-1.156l8.849-2.369c.737-.2 1.483-.38 2.212-.609l2.183-.7 4.364-1.406c2.9-.958 5.823-1.823 8.681-2.849l8.494-3.142 4.194-1.56 4.1-1.671 8.039-3.294a272.236 272.236 0 0 0 28.135-14.04 119.139 119.139 0 0 0 19.1-13.549 50.12 50.12 0 0 0 7.965-8.693c.3-.463.609-.916.888-1.37.241-.462.528-.916.722-1.356a1.054 1.054 0 0 1 1.22-.393c.553.147.707.641.563 1.2-.222.525-.514 1-.784 1.53-.3.5-.627 1-.951 1.508a52.771 52.771 0 0 1-8.442 9.365 125 125 0 0 1-19.415 14.013 281.5 281.5 0 0 1-28.232 14.4l-8.036 3.375-4.095 1.717-4.188 1.6-8.477 3.232c-2.862 1.039-5.791 1.954-8.7 2.941l-4.375 1.457-2.189.729c-.735.224-1.479.417-2.218.627l-8.867 2.467c-1.476.4-2.938.844-4.417 1.2l-4.433 1.025-8.767 2.025c-2.9.632-5.8 1.125-8.645 1.684-2.852.519-5.649 1.125-8.425 1.549l-8.169 1.26c-2.667.417-5.276.828-7.832 1.108-10.2 1.329-19.35 2.185-26.818 2.757l-9.868.67-6.89.3c-28 1.167-48.348-1.163-48.243-2.288.071-.997 21.044-.562 48.079-1.715Z" opacity=".25" style="mix-blend-mode:overlay"/>
    <path fill="url(#v)" d="m192.176 162.509-1.921-3.166c-.672-1.316-1.535-2.791-2.334-4.536a76.324 76.324 0 0 1-4.609-13.428 117.306 117.306 0 0 1-3.017-19.592q-.212-2.843-.305-5.885-.018-.761-.037-1.535l-.006-.328v-.057l.011-.252a.632.632 0 0 0 0-.065l-.042.041-.088.088-.094.1c-.059.064.068-.085-.45.5-1.5 1.678-3.009 3.431-4.558 5.243-4.076 4.772-8.428 10.154-12.831 16s-8.844 12.156-13.019 18.82c-2.141 3.3-4.08 6.765-6.064 10.214l-2.776 5.281c-.48.872-.9 1.773-1.31 2.675l-1.253 2.7a150.465 150.465 0 0 0-7.862 21.923c-2.038 7.277-3.655 14.347-4.927 20.919-1.232 6.58-2.164 12.651-2.853 17.951-1.334 10.607-1.783 18.1-1.911 20.486l-.16 3.35a.971.971 0 0 1-1 .832.926.926 0 0 1-.953-.891c.021-1.058.068-2.207.118-3.391.12-2.627.5-10.286 1.76-21.02.636-5.366 1.531-11.494 2.713-18.134 1.205-6.636 2.785-13.768 4.773-21.125a149.731 149.731 0 0 1 7.776-22.295l1.244-2.753.623-1.378.687-1.345 2.755-5.379c1.976-3.5 3.9-7.027 6.026-10.378 4.148-6.767 8.537-13.188 12.925-19.108s8.7-11.4 12.766-16.271c1.544-1.828 3.052-3.6 4.547-5.3l.682-.773 1.063-1.171 2.108-2.321 2.072-2.231 1.034-1.109.248-.26.116-.117a1.1 1.1 0 0 1 0 .182l-.028.812c-.062 2.148-.183 4.377-.156 6.334v2.247l.013.568q.023.747.045 1.483.108 2.943.326 5.7a113.589 113.589 0 0 0 3 18.892 72.281 72.281 0 0 0 4.427 12.758c.335.846.786 1.565 1.148 2.276l1.052 1.977 1.9 3.132c3.671 5.905 7.494 11.2 10.961 15.9 3.482 4.7 6.662 8.8 9.306 12.2 5.3 6.8 8.446 10.861 8.037 11.244-.373.351-4.4-3.189-10.359-9.649-2.975-3.233-6.428-7.2-10.1-11.815a170.553 170.553 0 0 1-11.239-15.77Z"/>
    <path fill="url(#w)" d="M241.415 585.844c-.354-1.579-.669-3.734-1.134-6.351-.251-1.305-.429-2.745-.605-4.3l-.6-4.977a142.479 142.479 0 0 1 .09-25.646 151.87 151.87 0 0 1 6.162-31.3 99.667 99.667 0 0 1 6.587-16.038 81.86 81.86 0 0 1 22.317-26.874l3.426-2.586c1.143-.847 2.351-1.587 3.513-2.378l1.751-1.163c.589-.374 1.2-.711 1.792-1.067l3.558-2.089a81.378 81.378 0 0 1 28.769-8.817 120.8 120.8 0 0 1 22.473-.447c5.835.422 9.8 1.069 11.382 1.32 1.076.185 2.128.366 3.128.579a.986.986 0 0 1-.385 1.918c-.942-.183-1.988-.35-3.061-.522-1.691-.254-5.7-.852-11.5-1.194a118.583 118.583 0 0 0-22.116.736 78.629 78.629 0 0 0-27.641 8.936c-2.262 1.392-4.631 2.694-6.845 4.284-1.112.784-2.291 1.494-3.367 2.351l-3.281 2.531a78.823 78.823 0 0 0-21.077 26.031 96.877 96.877 0 0 0-6.171 15.5 148.827 148.827 0 0 0-5.707 30.512 139.537 139.537 0 0 0 .094 24.893l.611 4.859c.187 1.517.357 2.929.612 4.212.472 2.571.789 4.7 1.142 6.284 1.314 6.353 2.86 12.2 4.4 17.409 1.605 5.183 3.115 9.752 4.523 13.494 2.728 7.525 4.666 11.872 4.166 12.152-.433.254-3.373-3.857-6.854-11.315a132.11 132.11 0 0 1-5.422-13.491c-.858-2.619-1.776-5.376-2.534-8.306-.848-2.899-1.491-5.984-2.196-9.14Z"/>
  </g>
</svg>
