<svg xmlns="http://www.w3.org/2000/svg"  viewBox="0 0 64 64" width="64px" height="64px"><linearGradient id="JS24UDqRLNriAq49vFdrOa" x1="32" x2="32" y1="7" y2="56" gradientUnits="userSpaceOnUse" spreadMethod="reflect"><stop offset="0" stop-color="#1a6dff"/><stop offset="1" stop-color="#c822ff"/></linearGradient><path fill="url(#JS24UDqRLNriAq49vFdrOa)" d="M53,15h-6.11l-0.5-2.4C45.73,9.35,42.85,7,39.54,7H24.81c-3.31,0-6.19,2.35-6.86,5.6 L17.46,15H11c-3.86,0-7,3.14-7,7v27c0,3.86,3.14,7,7,7h42c3.86,0,7-3.14,7-7V22C60,18.14,56.86,15,53,15z M58,49 c0,2.76-2.24,5-5,5H11c-2.76,0-5-2.24-5-5v-6h6v-2H6v-3h6v-2H6v-3h6v-2H6v-3h6v-2H6v-4c0-2.76,2.24-5,5-5h7.28 c0.47,0,0.88-0.33,0.98-0.8l0.65-3.2c0.48-2.32,2.54-4,4.9-4h14.73c2.36,0,4.42,1.68,4.9,4l0.65,3.2c0.09,0.47,0.5,0.8,0.98,0.8 H53c2.76,0,5,2.24,5,5v4h-6v2h6v3h-6v2h6v3h-6v2h6v3h-6v2h6V49z"/><linearGradient id="JS24UDqRLNriAq49vFdrOb" x1="32" x2="32" y1="22" y2="48" gradientUnits="userSpaceOnUse" spreadMethod="reflect"><stop offset="0" stop-color="#1a6dff"/><stop offset="1" stop-color="#c822ff"/></linearGradient><path fill="url(#JS24UDqRLNriAq49vFdrOb)" d="M32,24c6.065,0,11,4.935,11,11s-4.935,11-11,11s-11-4.935-11-11S25.935,24,32,24 M32,22 c-7.18,0-13,5.82-13,13s5.82,13,13,13s13-5.82,13-13S39.18,22,32,22L32,22z"/><linearGradient id="JS24UDqRLNriAq49vFdrOc" x1="27.5" x2="27.5" y1="24.928" y2="45.296" gradientUnits="userSpaceOnUse" spreadMethod="reflect"><stop offset="0" stop-color="#6dc7ff"/><stop offset="1" stop-color="#e6abff"/></linearGradient><path fill="url(#JS24UDqRLNriAq49vFdrOc)" d="M32,26c-4.971,0-9,4.029-9,9s4.029,9,9,9"/></svg>